<mxfile host="app.diagrams.net" modified="2024-03-13T09:44:08.015Z" agent="Mozilla/5.0 (Windows NT 10.0; Win64; x64) AppleWebKit/537.36 (KHTML, like Gecko) Chrome/122.0.0.0 Safari/537.36 Edg/122.0.0.0" etag="v2D_1fqBnFLapwdem42g" version="24.0.5" type="device">
  <diagram name="Page-1" id="13e1069c-82ec-6db2-03f1-153e76fe0fe0">
    <mxGraphModel dx="2047" dy="525" grid="1" gridSize="10" guides="1" tooltips="1" connect="1" arrows="1" fold="1" page="1" pageScale="1" pageWidth="1100" pageHeight="850" background="none" math="0" shadow="0">
      <root>
        <mxCell id="0" />
        <mxCell id="1" parent="0" />
        <mxCell id="7baba1c4bc27f4b0-14" value="dispatch" style="html=1;verticalAlign=bottom;endArrow=block;entryX=0;entryY=0;labelBackgroundColor=none;fontFamily=Verdana;fontSize=12;edgeStyle=elbowEdgeStyle;elbow=vertical;" parent="1" edge="1">
          <mxGeometry relative="1" as="geometry">
            <mxPoint x="295" y="200" as="sourcePoint" />
          </mxGeometry>
        </mxCell>
        <mxCell id="7oGzQQwhrVkhOCCTpUsd-3" value=":Клиент" style="shape=umlLifeline;perimeter=lifelinePerimeter;whiteSpace=wrap;html=1;container=1;collapsible=0;recursiveResize=0;outlineConnect=0;rounded=1;shadow=0;comic=0;labelBackgroundColor=none;strokeWidth=1;fontFamily=Verdana;fontSize=12;align=center;" parent="1" vertex="1">
          <mxGeometry x="310" y="80" width="100" height="3800" as="geometry" />
        </mxCell>
        <mxCell id="7oGzQQwhrVkhOCCTpUsd-4" value="" style="html=1;points=[];perimeter=orthogonalPerimeter;rounded=0;shadow=0;comic=0;labelBackgroundColor=none;strokeWidth=1;fontFamily=Verdana;fontSize=12;align=center;" parent="7oGzQQwhrVkhOCCTpUsd-3" vertex="1">
          <mxGeometry x="45" y="110" width="10" height="390" as="geometry" />
        </mxCell>
        <mxCell id="7oGzQQwhrVkhOCCTpUsd-5" value="Проверка&lt;br&gt;&amp;nbsp;корректности&amp;nbsp;&lt;br&gt;данных" style="html=1;verticalAlign=bottom;endArrow=block;labelBackgroundColor=none;fontFamily=Verdana;fontSize=12;elbow=vertical;edgeStyle=orthogonalEdgeStyle;curved=1;entryX=1;entryY=0.286;entryPerimeter=0;" parent="7oGzQQwhrVkhOCCTpUsd-3" edge="1">
          <mxGeometry relative="1" as="geometry">
            <mxPoint x="55.379999999999995" y="200" as="sourcePoint" />
            <mxPoint x="54.999999999999886" y="237.9000000000001" as="targetPoint" />
            <Array as="points">
              <mxPoint x="104.99999999999989" y="199.9000000000001" />
              <mxPoint x="104.99999999999989" y="237.9000000000001" />
            </Array>
          </mxGeometry>
        </mxCell>
        <mxCell id="7oGzQQwhrVkhOCCTpUsd-7" value="" style="endArrow=none;html=1;rounded=0;" parent="7oGzQQwhrVkhOCCTpUsd-3" edge="1">
          <mxGeometry width="50" height="50" relative="1" as="geometry">
            <mxPoint x="-430" y="510" as="sourcePoint" />
            <mxPoint x="530" y="510" as="targetPoint" />
          </mxGeometry>
        </mxCell>
        <mxCell id="7oGzQQwhrVkhOCCTpUsd-10" value="" style="html=1;points=[];perimeter=orthogonalPerimeter;rounded=0;shadow=0;comic=0;labelBackgroundColor=none;strokeWidth=1;fontFamily=Verdana;fontSize=12;align=center;" parent="7oGzQQwhrVkhOCCTpUsd-3" vertex="1">
          <mxGeometry x="45" y="1170" width="10" height="390" as="geometry" />
        </mxCell>
        <mxCell id="7oGzQQwhrVkhOCCTpUsd-58" value="" style="html=1;points=[];perimeter=orthogonalPerimeter;rounded=0;shadow=0;comic=0;labelBackgroundColor=none;strokeWidth=1;fontFamily=Verdana;fontSize=12;align=center;" parent="7oGzQQwhrVkhOCCTpUsd-3" vertex="1">
          <mxGeometry x="45" y="520" width="10" height="620" as="geometry" />
        </mxCell>
        <mxCell id="o5U00ARaUKJrAo0CxWUA-2" value="Выбор кнопки &lt;br&gt;входа в аккаунт" style="html=1;verticalAlign=bottom;endArrow=block;labelBackgroundColor=none;fontFamily=Verdana;fontSize=12;edgeStyle=elbowEdgeStyle;elbow=horizontal;" parent="7oGzQQwhrVkhOCCTpUsd-3" edge="1">
          <mxGeometry relative="1" as="geometry">
            <mxPoint x="-124" y="560" as="sourcePoint" />
            <mxPoint x="45" y="560" as="targetPoint" />
            <Array as="points">
              <mxPoint x="-25" y="560" />
            </Array>
          </mxGeometry>
        </mxCell>
        <mxCell id="o5U00ARaUKJrAo0CxWUA-6" value="Отображение &lt;br&gt;страницы входа" style="html=1;verticalAlign=bottom;endArrow=open;dashed=1;endSize=8;curved=0;rounded=0;" parent="7oGzQQwhrVkhOCCTpUsd-3" edge="1">
          <mxGeometry relative="1" as="geometry">
            <mxPoint x="45" y="600" as="sourcePoint" />
            <mxPoint x="-110" y="601" as="targetPoint" />
            <Array as="points">
              <mxPoint x="-45" y="601" />
            </Array>
          </mxGeometry>
        </mxCell>
        <mxCell id="o5U00ARaUKJrAo0CxWUA-9" value="Отображение формы" style="html=1;verticalAlign=bottom;endArrow=open;dashed=1;endSize=8;curved=0;rounded=0;" parent="7oGzQQwhrVkhOCCTpUsd-3" edge="1">
          <mxGeometry relative="1" as="geometry">
            <mxPoint x="45" y="680" as="sourcePoint" />
            <mxPoint x="-110" y="680" as="targetPoint" />
            <Array as="points">
              <mxPoint x="-45" y="681" />
            </Array>
          </mxGeometry>
        </mxCell>
        <mxCell id="o5U00ARaUKJrAo0CxWUA-18" value="Проверка&lt;br&gt;&amp;nbsp;корректности&amp;nbsp;&lt;br&gt;данных" style="html=1;verticalAlign=bottom;endArrow=block;labelBackgroundColor=none;fontFamily=Verdana;fontSize=12;elbow=vertical;edgeStyle=orthogonalEdgeStyle;curved=1;entryX=1;entryY=0.286;entryPerimeter=0;" parent="7oGzQQwhrVkhOCCTpUsd-3" edge="1">
          <mxGeometry relative="1" as="geometry">
            <mxPoint x="55.379999999999995" y="720" as="sourcePoint" />
            <mxPoint x="54.999999999999886" y="757.9000000000001" as="targetPoint" />
            <Array as="points">
              <mxPoint x="104.99999999999989" y="719.9000000000001" />
              <mxPoint x="104.99999999999989" y="757.9000000000001" />
            </Array>
          </mxGeometry>
        </mxCell>
        <mxCell id="o5U00ARaUKJrAo0CxWUA-42" value="Проверка&lt;div&gt;корректности&amp;nbsp;&lt;/div&gt;&lt;div&gt;данных&lt;/div&gt;" style="html=1;verticalAlign=bottom;endArrow=block;labelBackgroundColor=none;fontFamily=Verdana;fontSize=12;elbow=vertical;edgeStyle=orthogonalEdgeStyle;curved=1;entryX=1;entryY=0.286;entryPerimeter=0;rounded=0;" parent="7oGzQQwhrVkhOCCTpUsd-3" edge="1">
          <mxGeometry relative="1" as="geometry">
            <mxPoint x="55.379999999999995" y="1020" as="sourcePoint" />
            <mxPoint x="54.999999999999886" y="1057.9" as="targetPoint" />
            <Array as="points">
              <mxPoint x="104.99999999999989" y="1019.9000000000001" />
              <mxPoint x="104.99999999999989" y="1057.9" />
            </Array>
          </mxGeometry>
        </mxCell>
        <mxCell id="7oGzQQwhrVkhOCCTpUsd-67" value="" style="endArrow=none;html=1;rounded=0;" parent="7oGzQQwhrVkhOCCTpUsd-3" edge="1">
          <mxGeometry width="50" height="50" relative="1" as="geometry">
            <mxPoint x="-430" y="1160" as="sourcePoint" />
            <mxPoint x="530" y="1160" as="targetPoint" />
          </mxGeometry>
        </mxCell>
        <mxCell id="o5U00ARaUKJrAo0CxWUA-50" value="Выбор кнопки &lt;br&gt;добавления нового счёта" style="html=1;verticalAlign=bottom;endArrow=block;labelBackgroundColor=none;fontFamily=Verdana;fontSize=12;edgeStyle=elbowEdgeStyle;elbow=vertical;" parent="7oGzQQwhrVkhOCCTpUsd-3" edge="1">
          <mxGeometry relative="1" as="geometry">
            <mxPoint x="-124" y="1270.67" as="sourcePoint" />
            <mxPoint x="45" y="1270.67" as="targetPoint" />
            <Array as="points">
              <mxPoint x="-25" y="1270.67" />
            </Array>
          </mxGeometry>
        </mxCell>
        <mxCell id="o5U00ARaUKJrAo0CxWUA-51" value="Отображение формы&lt;br&gt;для создания нового счёта" style="html=1;verticalAlign=bottom;endArrow=open;dashed=1;endSize=8;curved=0;rounded=0;" parent="7oGzQQwhrVkhOCCTpUsd-3" edge="1">
          <mxGeometry x="0.0054" relative="1" as="geometry">
            <mxPoint x="45" y="1310.88" as="sourcePoint" />
            <mxPoint x="-115" y="1310.38" as="targetPoint" />
            <Array as="points">
              <mxPoint x="-70" y="1310.38" />
            </Array>
            <mxPoint as="offset" />
          </mxGeometry>
        </mxCell>
        <mxCell id="o5U00ARaUKJrAo0CxWUA-70" value="" style="html=1;points=[[0,0,0,0,5],[0,1,0,0,-5],[1,0,0,0,5],[1,1,0,0,-5]];perimeter=orthogonalPerimeter;outlineConnect=0;targetShapes=umlLifeline;portConstraint=eastwest;newEdgeStyle={&quot;curved&quot;:0,&quot;rounded&quot;:0};" parent="7oGzQQwhrVkhOCCTpUsd-3" vertex="1">
          <mxGeometry x="45" y="1600" width="10" height="450" as="geometry" />
        </mxCell>
        <mxCell id="o5U00ARaUKJrAo0CxWUA-82" value="Проверка&lt;div&gt;корректности&lt;/div&gt;&lt;div&gt;данных&lt;/div&gt;" style="html=1;verticalAlign=bottom;endArrow=block;labelBackgroundColor=none;fontFamily=Verdana;fontSize=12;elbow=vertical;edgeStyle=orthogonalEdgeStyle;curved=1;entryX=1;entryY=0.286;entryPerimeter=0;rounded=0;" parent="7oGzQQwhrVkhOCCTpUsd-3" edge="1">
          <mxGeometry relative="1" as="geometry">
            <mxPoint x="55" y="1850" as="sourcePoint" />
            <mxPoint x="54.61999999999989" y="1887.9" as="targetPoint" />
            <Array as="points">
              <mxPoint x="104.61999999999989" y="1849.9" />
              <mxPoint x="104.61999999999989" y="1887.9" />
            </Array>
          </mxGeometry>
        </mxCell>
        <mxCell id="o5U00ARaUKJrAo0CxWUA-92" value="" style="html=1;points=[[0,0,0,0,5],[0,1,0,0,-5],[1,0,0,0,5],[1,1,0,0,-5]];perimeter=orthogonalPerimeter;outlineConnect=0;targetShapes=umlLifeline;portConstraint=eastwest;newEdgeStyle={&quot;curved&quot;:0,&quot;rounded&quot;:0};" parent="7oGzQQwhrVkhOCCTpUsd-3" vertex="1">
          <mxGeometry x="45" y="2070" width="10" height="430" as="geometry" />
        </mxCell>
        <mxCell id="o5U00ARaUKJrAo0CxWUA-122" value="" style="html=1;points=[[0,0,0,0,5],[0,1,0,0,-5],[1,0,0,0,5],[1,1,0,0,-5]];perimeter=orthogonalPerimeter;outlineConnect=0;targetShapes=umlLifeline;portConstraint=eastwest;newEdgeStyle={&quot;curved&quot;:0,&quot;rounded&quot;:0};" parent="7oGzQQwhrVkhOCCTpUsd-3" vertex="1">
          <mxGeometry x="45" y="2530" width="10" height="460" as="geometry" />
        </mxCell>
        <mxCell id="o5U00ARaUKJrAo0CxWUA-129" value="Выбор кнопки добавления&lt;br&gt;&amp;nbsp;новой транзакции" style="html=1;verticalAlign=bottom;endArrow=block;labelBackgroundColor=none;fontFamily=Verdana;fontSize=12;edgeStyle=elbowEdgeStyle;elbow=vertical;" parent="7oGzQQwhrVkhOCCTpUsd-3" edge="1">
          <mxGeometry relative="1" as="geometry">
            <mxPoint x="-120" y="2650" as="sourcePoint" />
            <mxPoint x="49" y="2650" as="targetPoint" />
            <Array as="points">
              <mxPoint x="-21" y="2650" />
            </Array>
          </mxGeometry>
        </mxCell>
        <mxCell id="o5U00ARaUKJrAo0CxWUA-130" value="Запрос на отображение страницы &lt;br&gt;создания новой транзакции" style="html=1;verticalAlign=bottom;endArrow=block;curved=0;rounded=0;" parent="7oGzQQwhrVkhOCCTpUsd-3" edge="1">
          <mxGeometry width="80" relative="1" as="geometry">
            <mxPoint x="55" y="2650" as="sourcePoint" />
            <mxPoint x="240" y="2651" as="targetPoint" />
          </mxGeometry>
        </mxCell>
        <mxCell id="o5U00ARaUKJrAo0CxWUA-132" value="Отображение формы для&lt;br&gt;создания транзакции&lt;br&gt;с выбором категории / созданием&lt;div&gt;новой категории&lt;/div&gt;" style="html=1;verticalAlign=bottom;endArrow=open;dashed=1;endSize=8;curved=0;rounded=0;" parent="7oGzQQwhrVkhOCCTpUsd-3" edge="1">
          <mxGeometry x="0.0631" y="-10" relative="1" as="geometry">
            <mxPoint x="45" y="2730.5" as="sourcePoint" />
            <mxPoint x="-115" y="2730" as="targetPoint" />
            <Array as="points">
              <mxPoint x="-70" y="2730" />
            </Array>
            <mxPoint as="offset" />
          </mxGeometry>
        </mxCell>
        <mxCell id="o5U00ARaUKJrAo0CxWUA-138" value="Нажатие кнопки &lt;br&gt;сохранения" style="html=1;verticalAlign=bottom;endArrow=block;labelBackgroundColor=none;fontFamily=Verdana;fontSize=12;edgeStyle=elbowEdgeStyle;elbow=vertical;" parent="7oGzQQwhrVkhOCCTpUsd-3" edge="1">
          <mxGeometry relative="1" as="geometry">
            <mxPoint x="-120" y="2920" as="sourcePoint" />
            <mxPoint x="40" y="2920" as="targetPoint" />
            <Array as="points">
              <mxPoint x="-21" y="2920" />
            </Array>
          </mxGeometry>
        </mxCell>
        <mxCell id="o5U00ARaUKJrAo0CxWUA-139" value="Перенаправление данных" style="html=1;verticalAlign=bottom;endArrow=block;labelBackgroundColor=none;fontFamily=Verdana;fontSize=12;edgeStyle=elbowEdgeStyle;elbow=vertical;" parent="7oGzQQwhrVkhOCCTpUsd-3" edge="1">
          <mxGeometry relative="1" as="geometry">
            <mxPoint x="59" y="2920" as="sourcePoint" />
            <mxPoint x="244" y="2920" as="targetPoint" />
            <Array as="points">
              <mxPoint x="139" y="2920" />
            </Array>
          </mxGeometry>
        </mxCell>
        <mxCell id="o5U00ARaUKJrAo0CxWUA-145" value="" style="endArrow=none;html=1;rounded=0;" parent="7oGzQQwhrVkhOCCTpUsd-3" edge="1">
          <mxGeometry width="50" height="50" relative="1" as="geometry">
            <mxPoint x="-430" y="3000" as="sourcePoint" />
            <mxPoint x="530" y="3000" as="targetPoint" />
          </mxGeometry>
        </mxCell>
        <mxCell id="o5U00ARaUKJrAo0CxWUA-147" value="" style="html=1;points=[[0,0,0,0,5],[0,1,0,0,-5],[1,0,0,0,5],[1,1,0,0,-5]];perimeter=orthogonalPerimeter;outlineConnect=0;targetShapes=umlLifeline;portConstraint=eastwest;newEdgeStyle={&quot;curved&quot;:0,&quot;rounded&quot;:0};" parent="7oGzQQwhrVkhOCCTpUsd-3" vertex="1">
          <mxGeometry x="45" y="3010" width="10" height="390" as="geometry" />
        </mxCell>
        <mxCell id="o5U00ARaUKJrAo0CxWUA-156" value="Нажатие кнопки&amp;nbsp;&lt;div&gt;выбора вида графика&lt;/div&gt;" style="html=1;verticalAlign=bottom;endArrow=block;labelBackgroundColor=none;fontFamily=Verdana;fontSize=12;edgeStyle=elbowEdgeStyle;elbow=horizontal;" parent="7oGzQQwhrVkhOCCTpUsd-3" edge="1">
          <mxGeometry relative="1" as="geometry">
            <mxPoint x="-120" y="3130.5" as="sourcePoint" />
            <mxPoint x="45" y="3130" as="targetPoint" />
            <Array as="points">
              <mxPoint x="-25" y="3130" />
            </Array>
          </mxGeometry>
        </mxCell>
        <mxCell id="o5U00ARaUKJrAo0CxWUA-160" value="Отображение списка видов&lt;div&gt;на выбор&lt;/div&gt;" style="html=1;verticalAlign=bottom;endArrow=open;dashed=1;endSize=8;curved=0;rounded=0;" parent="7oGzQQwhrVkhOCCTpUsd-3" edge="1">
          <mxGeometry relative="1" as="geometry">
            <mxPoint x="40" y="3180.5" as="sourcePoint" />
            <mxPoint x="-120" y="3180" as="targetPoint" />
            <Array as="points">
              <mxPoint x="-75" y="3180" />
            </Array>
            <mxPoint as="offset" />
          </mxGeometry>
        </mxCell>
        <mxCell id="o5U00ARaUKJrAo0CxWUA-161" value="Выбор одного из видов&lt;div&gt;(график расходов за&lt;/div&gt;&lt;div&gt;день/месяц/год&lt;/div&gt;&lt;div&gt;/по семейному счёту)&lt;/div&gt;" style="html=1;verticalAlign=bottom;endArrow=block;labelBackgroundColor=none;fontFamily=Verdana;fontSize=12;edgeStyle=elbowEdgeStyle;elbow=horizontal;" parent="7oGzQQwhrVkhOCCTpUsd-3" edge="1">
          <mxGeometry relative="1" as="geometry">
            <mxPoint x="-120" y="3260.5" as="sourcePoint" />
            <mxPoint x="45" y="3260" as="targetPoint" />
            <Array as="points">
              <mxPoint x="-25" y="3260" />
            </Array>
          </mxGeometry>
        </mxCell>
        <mxCell id="o5U00ARaUKJrAo0CxWUA-166" value="Построение&amp;nbsp;&lt;div&gt;графика зависимости&amp;nbsp;&lt;/div&gt;&lt;div&gt;трат от времени&lt;/div&gt;" style="html=1;verticalAlign=bottom;endArrow=block;labelBackgroundColor=none;fontFamily=Verdana;fontSize=12;elbow=vertical;edgeStyle=orthogonalEdgeStyle;curved=1;entryX=1;entryY=0.286;entryPerimeter=0;exitX=1.038;exitY=0.345;exitPerimeter=0;rounded=0;" parent="7oGzQQwhrVkhOCCTpUsd-3" edge="1">
          <mxGeometry x="0.1888" y="30" relative="1" as="geometry">
            <mxPoint x="54.99999999999989" y="3340" as="sourcePoint" />
            <mxPoint x="59.99999999999989" y="3378" as="targetPoint" />
            <Array as="points">
              <mxPoint x="109.99999999999989" y="3340" />
              <mxPoint x="109.99999999999989" y="3378" />
            </Array>
            <mxPoint as="offset" />
          </mxGeometry>
        </mxCell>
        <mxCell id="o5U00ARaUKJrAo0CxWUA-167" value="" style="endArrow=none;html=1;rounded=0;" parent="7oGzQQwhrVkhOCCTpUsd-3" edge="1">
          <mxGeometry width="50" height="50" relative="1" as="geometry">
            <mxPoint x="-440" y="3410" as="sourcePoint" />
            <mxPoint x="520" y="3410" as="targetPoint" />
          </mxGeometry>
        </mxCell>
        <mxCell id="o5U00ARaUKJrAo0CxWUA-170" value="" style="html=1;points=[[0,0,0,0,5],[0,1,0,0,-5],[1,0,0,0,5],[1,1,0,0,-5]];perimeter=orthogonalPerimeter;outlineConnect=0;targetShapes=umlLifeline;portConstraint=eastwest;newEdgeStyle={&quot;curved&quot;:0,&quot;rounded&quot;:0};" parent="7oGzQQwhrVkhOCCTpUsd-3" vertex="1">
          <mxGeometry x="45" y="3420" width="10" height="380" as="geometry" />
        </mxCell>
        <mxCell id="o5U00ARaUKJrAo0CxWUA-172" value="Переход на страницу&lt;br&gt;&amp;nbsp;планирования" style="html=1;verticalAlign=bottom;endArrow=block;labelBackgroundColor=none;fontFamily=Verdana;fontSize=12;edgeStyle=elbowEdgeStyle;elbow=horizontal;" parent="7oGzQQwhrVkhOCCTpUsd-3" edge="1">
          <mxGeometry relative="1" as="geometry">
            <mxPoint x="-120" y="3440.5" as="sourcePoint" />
            <mxPoint x="45" y="3440" as="targetPoint" />
            <Array as="points">
              <mxPoint x="-25" y="3440" />
            </Array>
          </mxGeometry>
        </mxCell>
        <mxCell id="o5U00ARaUKJrAo0CxWUA-176" value="Выбор кнопки&amp;nbsp;&lt;span style=&quot;background-color: initial;&quot;&gt;создания&lt;/span&gt;&lt;div&gt;&lt;span style=&quot;background-color: initial;&quot;&gt;&amp;nbsp;плана (для категории)&lt;/span&gt;&lt;/div&gt;" style="html=1;verticalAlign=bottom;endArrow=block;labelBackgroundColor=none;fontFamily=Verdana;fontSize=12;edgeStyle=elbowEdgeStyle;elbow=vertical;" parent="7oGzQQwhrVkhOCCTpUsd-3" edge="1">
          <mxGeometry relative="1" as="geometry">
            <mxPoint x="-120" y="3520.5" as="sourcePoint" />
            <mxPoint x="45" y="3520" as="targetPoint" />
            <Array as="points">
              <mxPoint x="-25" y="3520" />
            </Array>
          </mxGeometry>
        </mxCell>
        <mxCell id="o5U00ARaUKJrAo0CxWUA-188" value="Переход на &lt;br&gt;страницу планирования" style="html=1;verticalAlign=bottom;endArrow=open;dashed=1;endSize=8;curved=0;rounded=0;" parent="7oGzQQwhrVkhOCCTpUsd-3" edge="1">
          <mxGeometry x="0.0054" relative="1" as="geometry">
            <mxPoint x="45" y="3780.5" as="sourcePoint" />
            <mxPoint x="-115" y="3780" as="targetPoint" />
            <Array as="points">
              <mxPoint x="-70" y="3780" />
            </Array>
            <mxPoint as="offset" />
          </mxGeometry>
        </mxCell>
        <mxCell id="o5U00ARaUKJrAo0CxWUA-189" value="" style="endArrow=none;html=1;rounded=0;" parent="7oGzQQwhrVkhOCCTpUsd-3" edge="1">
          <mxGeometry width="50" height="50" relative="1" as="geometry">
            <mxPoint x="-420" y="3810" as="sourcePoint" />
            <mxPoint x="540" y="3810" as="targetPoint" />
          </mxGeometry>
        </mxCell>
        <mxCell id="ggmF6aR8UfMVz6tL0OW5-6" value="Переход на страницу&amp;nbsp;&lt;div&gt;транзакций и счетов&lt;/div&gt;" style="html=1;verticalAlign=bottom;endArrow=block;labelBackgroundColor=none;fontFamily=Verdana;fontSize=12;edgeStyle=elbowEdgeStyle;elbow=horizontal;" edge="1" parent="7oGzQQwhrVkhOCCTpUsd-3">
          <mxGeometry relative="1" as="geometry">
            <mxPoint x="-120" y="1195.5" as="sourcePoint" />
            <mxPoint x="45" y="1195" as="targetPoint" />
            <Array as="points">
              <mxPoint x="-25" y="1195" />
            </Array>
          </mxGeometry>
        </mxCell>
        <mxCell id="ggmF6aR8UfMVz6tL0OW5-7" value="Запрос на отображение &lt;br&gt;страницы транзакций и счетов" style="html=1;verticalAlign=bottom;endArrow=block;curved=0;rounded=0;" edge="1" parent="7oGzQQwhrVkhOCCTpUsd-3">
          <mxGeometry width="80" relative="1" as="geometry">
            <mxPoint x="55" y="1195" as="sourcePoint" />
            <mxPoint x="240" y="1196" as="targetPoint" />
          </mxGeometry>
        </mxCell>
        <mxCell id="ggmF6aR8UfMVz6tL0OW5-8" value="Отображение страницы&amp;nbsp;&lt;div&gt;транзакций и счетов&lt;/div&gt;" style="html=1;verticalAlign=bottom;endArrow=open;dashed=1;endSize=8;curved=0;rounded=0;" edge="1" parent="7oGzQQwhrVkhOCCTpUsd-3">
          <mxGeometry x="0.0054" relative="1" as="geometry">
            <mxPoint x="45" y="1230.5" as="sourcePoint" />
            <mxPoint x="-115" y="1230.33" as="targetPoint" />
            <Array as="points">
              <mxPoint x="-70" y="1230" />
            </Array>
            <mxPoint as="offset" />
          </mxGeometry>
        </mxCell>
        <mxCell id="o5U00ARaUKJrAo0CxWUA-65" value="Проверка &lt;br&gt;корректности&lt;br&gt;&amp;nbsp;данных" style="html=1;verticalAlign=bottom;endArrow=block;labelBackgroundColor=none;fontFamily=Verdana;fontSize=12;elbow=vertical;edgeStyle=orthogonalEdgeStyle;curved=1;exitX=1.038;exitY=0.345;exitPerimeter=0;" parent="7oGzQQwhrVkhOCCTpUsd-3" edge="1">
          <mxGeometry relative="1" as="geometry">
            <mxPoint x="54.999999999999886" y="1360" as="sourcePoint" />
            <mxPoint x="55.379999999999995" y="1398.1" as="targetPoint" />
            <Array as="points">
              <mxPoint x="109.99999999999989" y="1360" />
              <mxPoint x="109.99999999999989" y="1398" />
            </Array>
          </mxGeometry>
        </mxCell>
        <mxCell id="ggmF6aR8UfMVz6tL0OW5-13" value="Переход на страницу&amp;nbsp;&lt;div&gt;транзакций и счетов&lt;/div&gt;" style="html=1;verticalAlign=bottom;endArrow=block;labelBackgroundColor=none;fontFamily=Verdana;fontSize=12;edgeStyle=elbowEdgeStyle;elbow=horizontal;" edge="1" parent="7oGzQQwhrVkhOCCTpUsd-3">
          <mxGeometry relative="1" as="geometry">
            <mxPoint x="-120" y="1630.5" as="sourcePoint" />
            <mxPoint x="45" y="1630" as="targetPoint" />
            <Array as="points">
              <mxPoint x="-25" y="1630" />
            </Array>
          </mxGeometry>
        </mxCell>
        <mxCell id="ggmF6aR8UfMVz6tL0OW5-14" value="Запрос на отображение &lt;br&gt;страницы транзакций и счетов" style="html=1;verticalAlign=bottom;endArrow=block;curved=0;rounded=0;" edge="1" parent="7oGzQQwhrVkhOCCTpUsd-3">
          <mxGeometry width="80" relative="1" as="geometry">
            <mxPoint x="55" y="1630" as="sourcePoint" />
            <mxPoint x="240" y="1631" as="targetPoint" />
          </mxGeometry>
        </mxCell>
        <mxCell id="ggmF6aR8UfMVz6tL0OW5-15" value="Отображение страницы&amp;nbsp;&lt;div&gt;транзакций и счетов&lt;/div&gt;" style="html=1;verticalAlign=bottom;endArrow=open;dashed=1;endSize=8;curved=0;rounded=0;" edge="1" parent="7oGzQQwhrVkhOCCTpUsd-3">
          <mxGeometry x="0.0054" relative="1" as="geometry">
            <mxPoint x="45" y="1670.5" as="sourcePoint" />
            <mxPoint x="-115" y="1670.33" as="targetPoint" />
            <Array as="points">
              <mxPoint x="-70" y="1670" />
            </Array>
            <mxPoint as="offset" />
          </mxGeometry>
        </mxCell>
        <mxCell id="ggmF6aR8UfMVz6tL0OW5-2" value="Отображение &lt;br&gt;домашней страницы" style="html=1;verticalAlign=bottom;endArrow=open;dashed=1;endSize=8;curved=0;rounded=0;" edge="1" parent="7oGzQQwhrVkhOCCTpUsd-3">
          <mxGeometry x="0.0054" relative="1" as="geometry">
            <mxPoint x="45" y="2600.5" as="sourcePoint" />
            <mxPoint x="-115" y="2600" as="targetPoint" />
            <Array as="points">
              <mxPoint x="-70" y="2600" />
            </Array>
            <mxPoint as="offset" />
          </mxGeometry>
        </mxCell>
        <mxCell id="7oGzQQwhrVkhOCCTpUsd-16" value=":Сервер" style="shape=umlLifeline;perimeter=lifelinePerimeter;whiteSpace=wrap;html=1;container=1;collapsible=0;recursiveResize=0;outlineConnect=0;rounded=1;shadow=0;comic=0;labelBackgroundColor=none;strokeWidth=1;fontFamily=Verdana;fontSize=12;align=center;" parent="1" vertex="1">
          <mxGeometry x="510" y="77.5" width="100" height="3802.5" as="geometry" />
        </mxCell>
        <mxCell id="7oGzQQwhrVkhOCCTpUsd-17" value="" style="html=1;points=[];perimeter=orthogonalPerimeter;rounded=0;shadow=0;comic=0;labelBackgroundColor=none;strokeWidth=1;fontFamily=Verdana;fontSize=12;align=center;" parent="7oGzQQwhrVkhOCCTpUsd-16" vertex="1">
          <mxGeometry x="45" y="112.5" width="10" height="387.5" as="geometry" />
        </mxCell>
        <mxCell id="7oGzQQwhrVkhOCCTpUsd-18" value="" style="html=1;points=[];perimeter=orthogonalPerimeter;rounded=0;shadow=0;comic=0;labelBackgroundColor=none;strokeWidth=1;fontFamily=Verdana;fontSize=12;align=center;" parent="7oGzQQwhrVkhOCCTpUsd-16" vertex="1">
          <mxGeometry x="45" y="522.5" width="10" height="617.5" as="geometry" />
        </mxCell>
        <mxCell id="7oGzQQwhrVkhOCCTpUsd-20" value="" style="html=1;points=[];perimeter=orthogonalPerimeter;rounded=0;shadow=0;comic=0;labelBackgroundColor=none;strokeWidth=1;fontFamily=Verdana;fontSize=12;align=center;" parent="7oGzQQwhrVkhOCCTpUsd-16" vertex="1">
          <mxGeometry x="45" y="1172.5" width="10" height="387.5" as="geometry" />
        </mxCell>
        <mxCell id="o5U00ARaUKJrAo0CxWUA-5" value="Передача формы&lt;br&gt;для заполнения" style="html=1;verticalAlign=bottom;endArrow=open;dashed=1;endSize=8;curved=0;rounded=0;" parent="7oGzQQwhrVkhOCCTpUsd-16" edge="1">
          <mxGeometry relative="1" as="geometry">
            <mxPoint x="40" y="602.5" as="sourcePoint" />
            <mxPoint x="-140" y="602.5" as="targetPoint" />
            <Array as="points">
              <mxPoint x="-100" y="602.5" />
            </Array>
          </mxGeometry>
        </mxCell>
        <mxCell id="o5U00ARaUKJrAo0CxWUA-19" value="Передача данных формы" style="html=1;verticalAlign=bottom;endArrow=block;labelBackgroundColor=none;fontFamily=Verdana;fontSize=12;edgeStyle=elbowEdgeStyle;elbow=horizontal;" parent="7oGzQQwhrVkhOCCTpUsd-16" edge="1">
          <mxGeometry relative="1" as="geometry">
            <mxPoint x="-144.5" y="772.5" as="sourcePoint" />
            <mxPoint x="45" y="772.5" as="targetPoint" />
            <Array as="points">
              <mxPoint x="-64.5" y="772.5" />
            </Array>
          </mxGeometry>
        </mxCell>
        <mxCell id="o5U00ARaUKJrAo0CxWUA-71" value="" style="html=1;points=[[0,0,0,0,5],[0,1,0,0,-5],[1,0,0,0,5],[1,1,0,0,-5]];perimeter=orthogonalPerimeter;outlineConnect=0;targetShapes=umlLifeline;portConstraint=eastwest;newEdgeStyle={&quot;curved&quot;:0,&quot;rounded&quot;:0};" parent="7oGzQQwhrVkhOCCTpUsd-16" vertex="1">
          <mxGeometry x="45" y="1600" width="10" height="452.5" as="geometry" />
        </mxCell>
        <mxCell id="o5U00ARaUKJrAo0CxWUA-77" value="Передача формы&lt;br&gt;для заполнения" style="html=1;verticalAlign=bottom;endArrow=open;dashed=1;endSize=8;curved=0;rounded=0;" parent="7oGzQQwhrVkhOCCTpUsd-16" edge="1">
          <mxGeometry relative="1" as="geometry">
            <mxPoint x="40" y="1782.5" as="sourcePoint" />
            <mxPoint x="-140" y="1782.5" as="targetPoint" />
            <Array as="points">
              <mxPoint x="-100" y="1782.5" />
            </Array>
          </mxGeometry>
        </mxCell>
        <mxCell id="o5U00ARaUKJrAo0CxWUA-83" value="Перенаправление данных" style="html=1;verticalAlign=bottom;endArrow=block;curved=0;rounded=0;" parent="7oGzQQwhrVkhOCCTpUsd-16" edge="1">
          <mxGeometry width="80" relative="1" as="geometry">
            <mxPoint x="-145" y="1922.5" as="sourcePoint" />
            <mxPoint x="40" y="1923.5" as="targetPoint" />
          </mxGeometry>
        </mxCell>
        <mxCell id="o5U00ARaUKJrAo0CxWUA-84" value="Проверка&lt;div&gt;корректности&lt;/div&gt;&lt;div&gt;данных&lt;/div&gt;" style="html=1;verticalAlign=bottom;endArrow=block;labelBackgroundColor=none;fontFamily=Verdana;fontSize=12;elbow=vertical;edgeStyle=orthogonalEdgeStyle;curved=1;entryX=1;entryY=0.286;entryPerimeter=0;rounded=0;" parent="7oGzQQwhrVkhOCCTpUsd-16" edge="1">
          <mxGeometry relative="1" as="geometry">
            <mxPoint x="55.379999999999995" y="1922.5" as="sourcePoint" />
            <mxPoint x="54.999999999999886" y="1960.4" as="targetPoint" />
            <Array as="points">
              <mxPoint x="104.99999999999989" y="1922.4" />
              <mxPoint x="104.99999999999989" y="1960.4" />
            </Array>
          </mxGeometry>
        </mxCell>
        <mxCell id="o5U00ARaUKJrAo0CxWUA-86" value="Возвращение результатов" style="html=1;verticalAlign=bottom;endArrow=open;dashed=1;endSize=8;curved=0;rounded=0;" parent="7oGzQQwhrVkhOCCTpUsd-16" edge="1">
          <mxGeometry x="0.0054" relative="1" as="geometry">
            <mxPoint x="40" y="2022.5" as="sourcePoint" />
            <mxPoint x="-145" y="2022.5" as="targetPoint" />
            <Array as="points">
              <mxPoint x="-100" y="2022.5" />
            </Array>
            <mxPoint as="offset" />
          </mxGeometry>
        </mxCell>
        <mxCell id="o5U00ARaUKJrAo0CxWUA-87" value="Переход на&amp;nbsp;страницу&lt;div&gt;транзакций и счетов&lt;/div&gt;" style="html=1;verticalAlign=bottom;endArrow=open;dashed=1;endSize=8;curved=0;rounded=0;" parent="7oGzQQwhrVkhOCCTpUsd-16" edge="1">
          <mxGeometry x="0.0054" relative="1" as="geometry">
            <mxPoint x="-160" y="2023" as="sourcePoint" />
            <mxPoint x="-320" y="2022.5" as="targetPoint" />
            <Array as="points">
              <mxPoint x="-275" y="2022.5" />
            </Array>
            <mxPoint as="offset" />
          </mxGeometry>
        </mxCell>
        <mxCell id="o5U00ARaUKJrAo0CxWUA-88" value="Результат сохранения" style="html=1;verticalAlign=bottom;endArrow=open;dashed=1;endSize=8;curved=0;rounded=0;" parent="7oGzQQwhrVkhOCCTpUsd-16" edge="1">
          <mxGeometry x="0.0054" relative="1" as="geometry">
            <mxPoint x="245" y="2022.6" as="sourcePoint" />
            <mxPoint x="60" y="2022.6" as="targetPoint" />
            <Array as="points">
              <mxPoint x="105" y="2022.6" />
            </Array>
            <mxPoint as="offset" />
          </mxGeometry>
        </mxCell>
        <mxCell id="o5U00ARaUKJrAo0CxWUA-93" value="" style="html=1;points=[[0,0,0,0,5],[0,1,0,0,-5],[1,0,0,0,5],[1,1,0,0,-5]];perimeter=orthogonalPerimeter;outlineConnect=0;targetShapes=umlLifeline;portConstraint=eastwest;newEdgeStyle={&quot;curved&quot;:0,&quot;rounded&quot;:0};" parent="7oGzQQwhrVkhOCCTpUsd-16" vertex="1">
          <mxGeometry x="45" y="2072.5" width="10" height="430" as="geometry" />
        </mxCell>
        <mxCell id="o5U00ARaUKJrAo0CxWUA-116" value="Возвращение результатов" style="html=1;verticalAlign=bottom;endArrow=open;dashed=1;endSize=8;curved=0;rounded=0;" parent="7oGzQQwhrVkhOCCTpUsd-16" edge="1">
          <mxGeometry x="0.0054" relative="1" as="geometry">
            <mxPoint x="44" y="2471.5" as="sourcePoint" />
            <mxPoint x="-141" y="2471.5" as="targetPoint" />
            <Array as="points">
              <mxPoint x="-96" y="2471.5" />
            </Array>
            <mxPoint as="offset" />
          </mxGeometry>
        </mxCell>
        <mxCell id="o5U00ARaUKJrAo0CxWUA-117" value="Переход на&lt;br&gt;домашнюю страницу" style="html=1;verticalAlign=bottom;endArrow=open;dashed=1;endSize=8;curved=0;rounded=0;" parent="7oGzQQwhrVkhOCCTpUsd-16" edge="1">
          <mxGeometry x="0.0054" relative="1" as="geometry">
            <mxPoint x="-156" y="2472" as="sourcePoint" />
            <mxPoint x="-316" y="2471.5" as="targetPoint" />
            <Array as="points">
              <mxPoint x="-271" y="2471.5" />
            </Array>
            <mxPoint as="offset" />
          </mxGeometry>
        </mxCell>
        <mxCell id="o5U00ARaUKJrAo0CxWUA-123" value="" style="html=1;points=[[0,0,0,0,5],[0,1,0,0,-5],[1,0,0,0,5],[1,1,0,0,-5]];perimeter=orthogonalPerimeter;outlineConnect=0;targetShapes=umlLifeline;portConstraint=eastwest;newEdgeStyle={&quot;curved&quot;:0,&quot;rounded&quot;:0};" parent="7oGzQQwhrVkhOCCTpUsd-16" vertex="1">
          <mxGeometry x="45" y="2532.5" width="10" height="457.5" as="geometry" />
        </mxCell>
        <mxCell id="o5U00ARaUKJrAo0CxWUA-131" value="Передача формы&lt;br&gt;для заполнения" style="html=1;verticalAlign=bottom;endArrow=open;dashed=1;endSize=8;curved=0;rounded=0;" parent="7oGzQQwhrVkhOCCTpUsd-16" edge="1">
          <mxGeometry relative="1" as="geometry">
            <mxPoint x="40" y="2732.5" as="sourcePoint" />
            <mxPoint x="-140" y="2732.5" as="targetPoint" />
            <Array as="points">
              <mxPoint x="-100" y="2732.5" />
            </Array>
          </mxGeometry>
        </mxCell>
        <mxCell id="o5U00ARaUKJrAo0CxWUA-142" value="Результат сохранения" style="html=1;verticalAlign=bottom;endArrow=open;dashed=1;endSize=8;curved=0;rounded=0;" parent="7oGzQQwhrVkhOCCTpUsd-16" edge="1">
          <mxGeometry x="0.0054" relative="1" as="geometry">
            <mxPoint x="245" y="2962.5" as="sourcePoint" />
            <mxPoint x="60" y="2962.5" as="targetPoint" />
            <Array as="points">
              <mxPoint x="105" y="2962.5" />
            </Array>
            <mxPoint as="offset" />
          </mxGeometry>
        </mxCell>
        <mxCell id="o5U00ARaUKJrAo0CxWUA-143" value="Возвращение к форме создания&lt;div&gt;транзакции для созданной категории&lt;/div&gt;" style="html=1;verticalAlign=bottom;endArrow=open;dashed=1;endSize=8;curved=0;rounded=0;" parent="7oGzQQwhrVkhOCCTpUsd-16" edge="1">
          <mxGeometry x="-0.027" relative="1" as="geometry">
            <mxPoint x="40" y="2962.5" as="sourcePoint" />
            <mxPoint x="-145" y="2962.5" as="targetPoint" />
            <Array as="points">
              <mxPoint x="-100" y="2962.5" />
            </Array>
            <mxPoint x="1" as="offset" />
          </mxGeometry>
        </mxCell>
        <mxCell id="o5U00ARaUKJrAo0CxWUA-144" value="Отображение формы&lt;div&gt;создания транзакции&lt;/div&gt;" style="html=1;verticalAlign=bottom;endArrow=open;dashed=1;endSize=8;curved=0;rounded=0;" parent="7oGzQQwhrVkhOCCTpUsd-16" edge="1">
          <mxGeometry x="0.0054" relative="1" as="geometry">
            <mxPoint x="-160" y="2963" as="sourcePoint" />
            <mxPoint x="-320" y="2962.5" as="targetPoint" />
            <Array as="points">
              <mxPoint x="-275" y="2962.5" />
            </Array>
            <mxPoint as="offset" />
          </mxGeometry>
        </mxCell>
        <mxCell id="o5U00ARaUKJrAo0CxWUA-148" value="" style="html=1;points=[[0,0,0,0,5],[0,1,0,0,-5],[1,0,0,0,5],[1,1,0,0,-5]];perimeter=orthogonalPerimeter;outlineConnect=0;targetShapes=umlLifeline;portConstraint=eastwest;newEdgeStyle={&quot;curved&quot;:0,&quot;rounded&quot;:0};" parent="7oGzQQwhrVkhOCCTpUsd-16" vertex="1">
          <mxGeometry x="45" y="3012.5" width="10" height="187.5" as="geometry" />
        </mxCell>
        <mxCell id="o5U00ARaUKJrAo0CxWUA-151" value="Запрос на отображение &lt;br&gt;страницы анализа расходов" style="html=1;verticalAlign=bottom;endArrow=block;curved=0;rounded=0;" parent="7oGzQQwhrVkhOCCTpUsd-16" edge="1">
          <mxGeometry width="80" relative="1" as="geometry">
            <mxPoint x="-140" y="3042.5" as="sourcePoint" />
            <mxPoint x="45" y="3043.5" as="targetPoint" />
          </mxGeometry>
        </mxCell>
        <mxCell id="o5U00ARaUKJrAo0CxWUA-171" value="" style="html=1;points=[[0,0,0,0,5],[0,1,0,0,-5],[1,0,0,0,5],[1,1,0,0,-5]];perimeter=orthogonalPerimeter;outlineConnect=0;targetShapes=umlLifeline;portConstraint=eastwest;newEdgeStyle={&quot;curved&quot;:0,&quot;rounded&quot;:0};" parent="7oGzQQwhrVkhOCCTpUsd-16" vertex="1">
          <mxGeometry x="45" y="3422.5" width="10" height="377.5" as="geometry" />
        </mxCell>
        <mxCell id="7oGzQQwhrVkhOCCTpUsd-23" value=":База данных" style="shape=umlLifeline;perimeter=lifelinePerimeter;whiteSpace=wrap;html=1;container=1;collapsible=0;recursiveResize=0;outlineConnect=0;rounded=1;shadow=0;comic=0;labelBackgroundColor=none;strokeWidth=1;fontFamily=Verdana;fontSize=12;align=center;" parent="1" vertex="1">
          <mxGeometry x="710" y="77.5" width="100" height="3802.5" as="geometry" />
        </mxCell>
        <mxCell id="7oGzQQwhrVkhOCCTpUsd-24" value="" style="html=1;points=[];perimeter=orthogonalPerimeter;rounded=0;shadow=0;comic=0;labelBackgroundColor=none;strokeWidth=1;fontFamily=Verdana;fontSize=12;align=center;" parent="7oGzQQwhrVkhOCCTpUsd-23" vertex="1">
          <mxGeometry x="45" y="272.5" width="10" height="70" as="geometry" />
        </mxCell>
        <mxCell id="7oGzQQwhrVkhOCCTpUsd-26" value="" style="html=1;points=[];perimeter=orthogonalPerimeter;rounded=0;shadow=0;comic=0;labelBackgroundColor=none;strokeWidth=1;fontFamily=Verdana;fontSize=12;align=center;" parent="7oGzQQwhrVkhOCCTpUsd-23" vertex="1">
          <mxGeometry x="45" y="1062.5" width="10" height="57.5" as="geometry" />
        </mxCell>
        <mxCell id="7oGzQQwhrVkhOCCTpUsd-27" value="" style="html=1;points=[];perimeter=orthogonalPerimeter;rounded=0;shadow=0;comic=0;labelBackgroundColor=none;strokeWidth=1;fontFamily=Verdana;fontSize=12;align=center;" parent="7oGzQQwhrVkhOCCTpUsd-23" vertex="1">
          <mxGeometry x="45" y="1462.5" width="10" height="67.5" as="geometry" />
        </mxCell>
        <mxCell id="o5U00ARaUKJrAo0CxWUA-22" value="" style="html=1;points=[];perimeter=orthogonalPerimeter;rounded=0;shadow=0;comic=0;labelBackgroundColor=none;strokeWidth=1;fontFamily=Verdana;fontSize=12;align=center;" parent="7oGzQQwhrVkhOCCTpUsd-23" vertex="1">
          <mxGeometry x="45" y="762.5" width="10" height="57.5" as="geometry" />
        </mxCell>
        <mxCell id="o5U00ARaUKJrAo0CxWUA-27" value="Возвращение&lt;br&gt;результатов поиска" style="html=1;verticalAlign=bottom;endArrow=open;dashed=1;endSize=8;curved=0;rounded=0;" parent="7oGzQQwhrVkhOCCTpUsd-23" edge="1">
          <mxGeometry x="0.0054" relative="1" as="geometry">
            <mxPoint x="45" y="812.5" as="sourcePoint" />
            <mxPoint x="-140" y="812.5" as="targetPoint" />
            <Array as="points">
              <mxPoint x="-95" y="812.5" />
            </Array>
            <mxPoint as="offset" />
          </mxGeometry>
        </mxCell>
        <mxCell id="o5U00ARaUKJrAo0CxWUA-89" value="" style="html=1;points=[];perimeter=orthogonalPerimeter;rounded=0;shadow=0;comic=0;labelBackgroundColor=none;strokeWidth=1;fontFamily=Verdana;fontSize=12;align=center;" parent="7oGzQQwhrVkhOCCTpUsd-23" vertex="1">
          <mxGeometry x="45" y="1972.5" width="10" height="57.5" as="geometry" />
        </mxCell>
        <mxCell id="o5U00ARaUKJrAo0CxWUA-118" value="" style="html=1;points=[];perimeter=orthogonalPerimeter;rounded=0;shadow=0;comic=0;labelBackgroundColor=none;strokeWidth=1;fontFamily=Verdana;fontSize=12;align=center;" parent="7oGzQQwhrVkhOCCTpUsd-23" vertex="1">
          <mxGeometry x="45" y="2414.5" width="10" height="65.5" as="geometry" />
        </mxCell>
        <mxCell id="o5U00ARaUKJrAo0CxWUA-141" value="" style="html=1;points=[];perimeter=orthogonalPerimeter;rounded=0;shadow=0;comic=0;labelBackgroundColor=none;strokeWidth=1;fontFamily=Verdana;fontSize=12;align=center;" parent="7oGzQQwhrVkhOCCTpUsd-23" vertex="1">
          <mxGeometry x="45" y="2912.5" width="10" height="57.5" as="geometry" />
        </mxCell>
        <mxCell id="o5U00ARaUKJrAo0CxWUA-163" value="" style="html=1;points=[];perimeter=orthogonalPerimeter;rounded=0;shadow=0;comic=0;labelBackgroundColor=none;strokeWidth=1;fontFamily=Verdana;fontSize=12;align=center;" parent="7oGzQQwhrVkhOCCTpUsd-23" vertex="1">
          <mxGeometry x="45" y="3252.5" width="10" height="57.5" as="geometry" />
        </mxCell>
        <mxCell id="o5U00ARaUKJrAo0CxWUA-185" value="" style="html=1;points=[];perimeter=orthogonalPerimeter;rounded=0;shadow=0;comic=0;labelBackgroundColor=none;strokeWidth=1;fontFamily=Verdana;fontSize=12;align=center;" parent="7oGzQQwhrVkhOCCTpUsd-23" vertex="1">
          <mxGeometry x="45" y="3742.5" width="10" height="47.5" as="geometry" />
        </mxCell>
        <mxCell id="o5U00ARaUKJrAo0CxWUA-115" value="Результат сохранения" style="html=1;verticalAlign=bottom;endArrow=open;dashed=1;endSize=8;curved=0;rounded=0;" parent="7oGzQQwhrVkhOCCTpUsd-23" edge="1">
          <mxGeometry x="-0.0378" relative="1" as="geometry">
            <mxPoint x="45" y="2471.09" as="sourcePoint" />
            <mxPoint x="-140" y="2471.09" as="targetPoint" />
            <Array as="points">
              <mxPoint x="-95" y="2471.09" />
            </Array>
            <mxPoint as="offset" />
          </mxGeometry>
        </mxCell>
        <mxCell id="7oGzQQwhrVkhOCCTpUsd-28" value=":Авторизованный&lt;br&gt;пользователь" style="shape=umlLifeline;perimeter=lifelinePerimeter;whiteSpace=wrap;html=1;container=1;collapsible=0;recursiveResize=0;outlineConnect=0;rounded=1;shadow=0;comic=0;labelBackgroundColor=none;strokeWidth=1;fontFamily=Verdana;fontSize=12;align=center;" parent="1" vertex="1">
          <mxGeometry x="110" y="80" width="150" height="3800" as="geometry" />
        </mxCell>
        <mxCell id="7oGzQQwhrVkhOCCTpUsd-29" value="" style="html=1;points=[];perimeter=orthogonalPerimeter;rounded=0;shadow=0;comic=0;labelBackgroundColor=none;strokeWidth=1;fontFamily=Verdana;fontSize=12;align=center;" parent="7oGzQQwhrVkhOCCTpUsd-28" vertex="1">
          <mxGeometry x="70" y="110" width="10" height="390" as="geometry" />
        </mxCell>
        <mxCell id="7oGzQQwhrVkhOCCTpUsd-30" value="" style="html=1;points=[];perimeter=orthogonalPerimeter;rounded=0;shadow=0;comic=0;labelBackgroundColor=none;strokeWidth=1;fontFamily=Verdana;fontSize=12;align=center;" parent="7oGzQQwhrVkhOCCTpUsd-28" vertex="1">
          <mxGeometry x="70" y="520" width="10" height="620" as="geometry" />
        </mxCell>
        <mxCell id="7oGzQQwhrVkhOCCTpUsd-32" value="" style="html=1;points=[];perimeter=orthogonalPerimeter;rounded=0;shadow=0;comic=0;labelBackgroundColor=none;strokeWidth=1;fontFamily=Verdana;fontSize=12;align=center;" parent="7oGzQQwhrVkhOCCTpUsd-28" vertex="1">
          <mxGeometry x="70" y="1170" width="10" height="390" as="geometry" />
        </mxCell>
        <mxCell id="o5U00ARaUKJrAo0CxWUA-17" value="Заполнение формы&lt;div&gt;(ввод email)&lt;/div&gt;" style="html=1;verticalAlign=bottom;endArrow=block;labelBackgroundColor=none;fontFamily=Verdana;fontSize=12;edgeStyle=elbowEdgeStyle;elbow=vertical;" parent="7oGzQQwhrVkhOCCTpUsd-28" edge="1">
          <mxGeometry relative="1" as="geometry">
            <mxPoint x="80" y="720" as="sourcePoint" />
            <mxPoint x="240" y="720" as="targetPoint" />
            <Array as="points">
              <mxPoint x="160" y="720" />
            </Array>
          </mxGeometry>
        </mxCell>
        <mxCell id="o5U00ARaUKJrAo0CxWUA-69" value="" style="html=1;points=[[0,0,0,0,5],[0,1,0,0,-5],[1,0,0,0,5],[1,1,0,0,-5]];perimeter=orthogonalPerimeter;outlineConnect=0;targetShapes=umlLifeline;portConstraint=eastwest;newEdgeStyle={&quot;curved&quot;:0,&quot;rounded&quot;:0};" parent="7oGzQQwhrVkhOCCTpUsd-28" vertex="1">
          <mxGeometry x="70" y="1600" width="10" height="450" as="geometry" />
        </mxCell>
        <mxCell id="o5U00ARaUKJrAo0CxWUA-91" value="" style="html=1;points=[[0,0,0,0,5],[0,1,0,0,-5],[1,0,0,0,5],[1,1,0,0,-5]];perimeter=orthogonalPerimeter;outlineConnect=0;targetShapes=umlLifeline;portConstraint=eastwest;newEdgeStyle={&quot;curved&quot;:0,&quot;rounded&quot;:0};" parent="7oGzQQwhrVkhOCCTpUsd-28" vertex="1">
          <mxGeometry x="70" y="2070" width="10" height="430" as="geometry" />
        </mxCell>
        <mxCell id="o5U00ARaUKJrAo0CxWUA-105" value="Выбор кнопки добавления&lt;br&gt;&amp;nbsp;новой транзакции" style="html=1;verticalAlign=bottom;endArrow=block;labelBackgroundColor=none;fontFamily=Verdana;fontSize=12;edgeStyle=elbowEdgeStyle;elbow=vertical;" parent="7oGzQQwhrVkhOCCTpUsd-28" edge="1">
          <mxGeometry relative="1" as="geometry">
            <mxPoint x="80" y="2190" as="sourcePoint" />
            <mxPoint x="249" y="2190" as="targetPoint" />
            <Array as="points">
              <mxPoint x="179" y="2190" />
            </Array>
          </mxGeometry>
        </mxCell>
        <mxCell id="o5U00ARaUKJrAo0CxWUA-121" value="" style="html=1;points=[[0,0,0,0,5],[0,1,0,0,-5],[1,0,0,0,5],[1,1,0,0,-5]];perimeter=orthogonalPerimeter;outlineConnect=0;targetShapes=umlLifeline;portConstraint=eastwest;newEdgeStyle={&quot;curved&quot;:0,&quot;rounded&quot;:0};" parent="7oGzQQwhrVkhOCCTpUsd-28" vertex="1">
          <mxGeometry x="70" y="2530" width="10" height="460" as="geometry" />
        </mxCell>
        <mxCell id="o5U00ARaUKJrAo0CxWUA-133" value="Выбор кнопки добавления&lt;br&gt;&amp;nbsp;новой категории" style="html=1;verticalAlign=bottom;endArrow=block;labelBackgroundColor=none;fontFamily=Verdana;fontSize=12;edgeStyle=elbowEdgeStyle;elbow=vertical;" parent="7oGzQQwhrVkhOCCTpUsd-28" edge="1">
          <mxGeometry relative="1" as="geometry">
            <mxPoint x="80" y="2780" as="sourcePoint" />
            <mxPoint x="249" y="2780" as="targetPoint" />
            <Array as="points">
              <mxPoint x="179" y="2780" />
            </Array>
          </mxGeometry>
        </mxCell>
        <mxCell id="o5U00ARaUKJrAo0CxWUA-137" value="Заполнение&lt;div&gt;полей формы&lt;/div&gt;" style="html=1;verticalAlign=bottom;endArrow=block;labelBackgroundColor=none;fontFamily=Verdana;fontSize=12;elbow=vertical;edgeStyle=orthogonalEdgeStyle;curved=1;entryX=1;entryY=0.286;entryPerimeter=0;exitX=1.038;exitY=0.345;exitPerimeter=0;rounded=0;" parent="7oGzQQwhrVkhOCCTpUsd-28" edge="1">
          <mxGeometry relative="1" as="geometry">
            <mxPoint x="79.99999999999989" y="2840" as="sourcePoint" />
            <mxPoint x="84.99999999999989" y="2878" as="targetPoint" />
            <Array as="points">
              <mxPoint x="134.9999999999999" y="2840" />
              <mxPoint x="134.9999999999999" y="2878" />
            </Array>
          </mxGeometry>
        </mxCell>
        <mxCell id="o5U00ARaUKJrAo0CxWUA-146" value="" style="html=1;points=[[0,0,0,0,5],[0,1,0,0,-5],[1,0,0,0,5],[1,1,0,0,-5]];perimeter=orthogonalPerimeter;outlineConnect=0;targetShapes=umlLifeline;portConstraint=eastwest;newEdgeStyle={&quot;curved&quot;:0,&quot;rounded&quot;:0};" parent="7oGzQQwhrVkhOCCTpUsd-28" vertex="1">
          <mxGeometry x="70" y="3010" width="10" height="390" as="geometry" />
        </mxCell>
        <mxCell id="o5U00ARaUKJrAo0CxWUA-150" value="Переход на страницу&lt;br&gt;анализа расходов" style="html=1;verticalAlign=bottom;endArrow=block;labelBackgroundColor=none;fontFamily=Verdana;fontSize=12;edgeStyle=elbowEdgeStyle;elbow=horizontal;" parent="7oGzQQwhrVkhOCCTpUsd-28" edge="1">
          <mxGeometry relative="1" as="geometry">
            <mxPoint x="80" y="3040.5" as="sourcePoint" />
            <mxPoint x="245" y="3040" as="targetPoint" />
            <Array as="points">
              <mxPoint x="175" y="3040" />
            </Array>
          </mxGeometry>
        </mxCell>
        <mxCell id="o5U00ARaUKJrAo0CxWUA-169" value="" style="html=1;points=[[0,0,0,0,5],[0,1,0,0,-5],[1,0,0,0,5],[1,1,0,0,-5]];perimeter=orthogonalPerimeter;outlineConnect=0;targetShapes=umlLifeline;portConstraint=eastwest;newEdgeStyle={&quot;curved&quot;:0,&quot;rounded&quot;:0};" parent="7oGzQQwhrVkhOCCTpUsd-28" vertex="1">
          <mxGeometry x="70" y="3420" width="10" height="380" as="geometry" />
        </mxCell>
        <mxCell id="o5U00ARaUKJrAo0CxWUA-179" value="Отображение формы для&amp;nbsp;&lt;div&gt;создания нового плана&lt;/div&gt;" style="html=1;verticalAlign=bottom;endArrow=open;dashed=1;endSize=8;curved=0;rounded=0;" parent="7oGzQQwhrVkhOCCTpUsd-28" edge="1">
          <mxGeometry relative="1" as="geometry">
            <mxPoint x="240" y="3560" as="sourcePoint" />
            <mxPoint x="80" y="3560" as="targetPoint" />
            <Array as="points">
              <mxPoint x="120" y="3560" />
            </Array>
          </mxGeometry>
        </mxCell>
        <mxCell id="o5U00ARaUKJrAo0CxWUA-180" value="Выбор&amp;nbsp;&lt;div&gt;категории,&amp;nbsp;&lt;/div&gt;&lt;div&gt;для которой&amp;nbsp;&lt;/div&gt;&lt;div&gt;задаётся план&lt;/div&gt;" style="html=1;verticalAlign=bottom;endArrow=block;labelBackgroundColor=none;fontFamily=Verdana;fontSize=12;elbow=vertical;edgeStyle=orthogonalEdgeStyle;curved=1;entryX=1;entryY=0.286;entryPerimeter=0;exitX=1.038;exitY=0.345;exitPerimeter=0;rounded=0;" parent="7oGzQQwhrVkhOCCTpUsd-28" edge="1">
          <mxGeometry x="0.3008" y="25" relative="1" as="geometry">
            <mxPoint x="79.99999999999989" y="3590" as="sourcePoint" />
            <mxPoint x="84.99999999999989" y="3628" as="targetPoint" />
            <Array as="points">
              <mxPoint x="134.9999999999999" y="3590" />
              <mxPoint x="134.9999999999999" y="3628" />
            </Array>
            <mxPoint x="25" y="-23" as="offset" />
          </mxGeometry>
        </mxCell>
        <mxCell id="o5U00ARaUKJrAo0CxWUA-181" value="Заполнение&lt;div&gt;данных формы&lt;/div&gt;" style="html=1;verticalAlign=bottom;endArrow=block;labelBackgroundColor=none;fontFamily=Verdana;fontSize=12;elbow=vertical;edgeStyle=orthogonalEdgeStyle;curved=1;entryX=1;entryY=0.286;entryPerimeter=0;exitX=1.038;exitY=0.345;exitPerimeter=0;rounded=0;" parent="7oGzQQwhrVkhOCCTpUsd-28" edge="1">
          <mxGeometry relative="1" as="geometry">
            <mxPoint x="79.99999999999989" y="3660" as="sourcePoint" />
            <mxPoint x="84.99999999999989" y="3698" as="targetPoint" />
            <Array as="points">
              <mxPoint x="134.9999999999999" y="3660" />
              <mxPoint x="134.9999999999999" y="3698" />
            </Array>
          </mxGeometry>
        </mxCell>
        <mxCell id="o5U00ARaUKJrAo0CxWUA-73" value="Отображение &lt;br&gt;домашней страницы" style="html=1;verticalAlign=bottom;endArrow=open;dashed=1;endSize=8;curved=0;rounded=0;" parent="7oGzQQwhrVkhOCCTpUsd-28" edge="1">
          <mxGeometry x="0.0054" relative="1" as="geometry">
            <mxPoint x="240" y="2140.5" as="sourcePoint" />
            <mxPoint x="80" y="2140" as="targetPoint" />
            <Array as="points">
              <mxPoint x="125" y="2140" />
            </Array>
            <mxPoint as="offset" />
          </mxGeometry>
        </mxCell>
        <mxCell id="7oGzQQwhrVkhOCCTpUsd-34" value="Заполнение формы" style="html=1;verticalAlign=bottom;endArrow=block;labelBackgroundColor=none;fontFamily=Verdana;fontSize=12;edgeStyle=elbowEdgeStyle;elbow=vertical;" parent="1" edge="1">
          <mxGeometry relative="1" as="geometry">
            <mxPoint x="190" y="280" as="sourcePoint" />
            <mxPoint x="350" y="280" as="targetPoint" />
            <Array as="points">
              <mxPoint x="270" y="280" />
            </Array>
          </mxGeometry>
        </mxCell>
        <mxCell id="7oGzQQwhrVkhOCCTpUsd-35" value="" style="shape=umlActor;verticalLabelPosition=bottom;verticalAlign=top;html=1;outlineConnect=0;" parent="1" vertex="1">
          <mxGeometry x="170" y="17.5" width="30" height="60" as="geometry" />
        </mxCell>
        <mxCell id="7oGzQQwhrVkhOCCTpUsd-36" value="Процесс авторизации" style="rounded=1;whiteSpace=wrap;html=1;fillColor=#d5e8d4;strokeColor=#82b366;" parent="1" vertex="1">
          <mxGeometry x="-120" y="300" width="120" height="60" as="geometry" />
        </mxCell>
        <mxCell id="7oGzQQwhrVkhOCCTpUsd-37" value="Запрос на отображение &lt;br&gt;страницы входа" style="html=1;verticalAlign=bottom;endArrow=block;curved=0;rounded=0;" parent="1" edge="1">
          <mxGeometry width="80" relative="1" as="geometry">
            <mxPoint x="370" y="200" as="sourcePoint" />
            <mxPoint x="550" y="201" as="targetPoint" />
          </mxGeometry>
        </mxCell>
        <mxCell id="7oGzQQwhrVkhOCCTpUsd-38" value="Передача формы&lt;br&gt;для заполнения" style="html=1;verticalAlign=bottom;endArrow=open;dashed=1;endSize=8;curved=0;rounded=0;" parent="1" edge="1">
          <mxGeometry relative="1" as="geometry">
            <mxPoint x="550" y="240" as="sourcePoint" />
            <mxPoint x="370" y="240" as="targetPoint" />
            <Array as="points">
              <mxPoint x="410" y="240" />
            </Array>
          </mxGeometry>
        </mxCell>
        <mxCell id="7oGzQQwhrVkhOCCTpUsd-39" value="Отображение &lt;br&gt;страницы входа" style="html=1;verticalAlign=bottom;endArrow=open;dashed=1;endSize=8;curved=0;rounded=0;" parent="1" edge="1">
          <mxGeometry relative="1" as="geometry">
            <mxPoint x="350" y="239" as="sourcePoint" />
            <mxPoint x="200" y="240" as="targetPoint" />
            <Array as="points">
              <mxPoint x="260" y="240" />
            </Array>
          </mxGeometry>
        </mxCell>
        <mxCell id="7oGzQQwhrVkhOCCTpUsd-40" value="Выбор кнопки &lt;br&gt;входа в аккаунт" style="html=1;verticalAlign=bottom;endArrow=block;labelBackgroundColor=none;fontFamily=Verdana;fontSize=12;edgeStyle=elbowEdgeStyle;elbow=horizontal;" parent="1" target="7oGzQQwhrVkhOCCTpUsd-3" edge="1">
          <mxGeometry relative="1" as="geometry">
            <mxPoint x="191" y="200" as="sourcePoint" />
            <mxPoint x="340" y="200" as="targetPoint" />
            <Array as="points">
              <mxPoint x="290" y="200" />
            </Array>
          </mxGeometry>
        </mxCell>
        <mxCell id="7oGzQQwhrVkhOCCTpUsd-41" value="Передача данных формы" style="html=1;verticalAlign=bottom;endArrow=block;labelBackgroundColor=none;fontFamily=Verdana;fontSize=12;edgeStyle=elbowEdgeStyle;elbow=horizontal;" parent="1" edge="1">
          <mxGeometry relative="1" as="geometry">
            <mxPoint x="370" y="360" as="sourcePoint" />
            <mxPoint x="559.5" y="360" as="targetPoint" />
            <Array as="points">
              <mxPoint x="450" y="360" />
            </Array>
          </mxGeometry>
        </mxCell>
        <mxCell id="7oGzQQwhrVkhOCCTpUsd-42" value="Запрос на поиск совпадений&lt;br&gt;с введенными данными" style="html=1;verticalAlign=bottom;endArrow=block;labelBackgroundColor=none;fontFamily=Verdana;fontSize=12;edgeStyle=elbowEdgeStyle;elbow=vertical;" parent="1" edge="1">
          <mxGeometry relative="1" as="geometry">
            <mxPoint x="570" y="360" as="sourcePoint" />
            <mxPoint x="750" y="360" as="targetPoint" />
            <Array as="points">
              <mxPoint x="650" y="360" />
            </Array>
          </mxGeometry>
        </mxCell>
        <mxCell id="7oGzQQwhrVkhOCCTpUsd-44" value="Возвращение&lt;br&gt;результатов поиска" style="html=1;verticalAlign=bottom;endArrow=open;dashed=1;endSize=8;curved=0;rounded=0;" parent="1" edge="1">
          <mxGeometry relative="1" as="geometry">
            <mxPoint x="750" y="400" as="sourcePoint" />
            <mxPoint x="570" y="400" as="targetPoint" />
            <Array as="points">
              <mxPoint x="610" y="400" />
            </Array>
          </mxGeometry>
        </mxCell>
        <mxCell id="7oGzQQwhrVkhOCCTpUsd-45" value="Возвращение сообщения,&amp;nbsp;&lt;br&gt;что на этот email нет&amp;nbsp;&lt;div&gt;зарегистрированного аккаунта&lt;br&gt;&lt;/div&gt;" style="html=1;verticalAlign=bottom;endArrow=open;dashed=1;endSize=8;curved=0;rounded=0;" parent="1" edge="1">
          <mxGeometry y="-10" relative="1" as="geometry">
            <mxPoint x="355" y="539.6" as="sourcePoint" />
            <mxPoint x="195" y="539.6" as="targetPoint" />
            <Array as="points">
              <mxPoint x="225" y="539.6" />
            </Array>
            <mxPoint as="offset" />
          </mxGeometry>
        </mxCell>
        <mxCell id="7oGzQQwhrVkhOCCTpUsd-46" value="данные найдены" style="shape=umlFrame;whiteSpace=wrap;html=1;pointerEvents=0;" parent="1" vertex="1">
          <mxGeometry x="80" y="410" width="560" height="70" as="geometry" />
        </mxCell>
        <mxCell id="7oGzQQwhrVkhOCCTpUsd-47" value="иначе" style="shape=umlFrame;whiteSpace=wrap;html=1;pointerEvents=0;" parent="1" vertex="1">
          <mxGeometry x="80" y="480" width="560" height="80" as="geometry" />
        </mxCell>
        <mxCell id="7oGzQQwhrVkhOCCTpUsd-48" value="Проверка&lt;br&gt;&amp;nbsp;корректности&amp;nbsp;&lt;br&gt;данных" style="html=1;verticalAlign=bottom;endArrow=block;labelBackgroundColor=none;fontFamily=Verdana;fontSize=12;elbow=vertical;edgeStyle=orthogonalEdgeStyle;curved=1;entryX=1;entryY=0.286;entryPerimeter=0;" parent="1" edge="1">
          <mxGeometry relative="1" as="geometry">
            <mxPoint x="570.38" y="433.75" as="sourcePoint" />
            <mxPoint x="569.9999999999999" y="471.6500000000001" as="targetPoint" />
            <Array as="points">
              <mxPoint x="619.9999999999999" y="433.6500000000001" />
              <mxPoint x="619.9999999999999" y="471.6500000000001" />
            </Array>
          </mxGeometry>
        </mxCell>
        <mxCell id="7oGzQQwhrVkhOCCTpUsd-49" value="Возвращение&lt;br&gt;результатов" style="html=1;verticalAlign=bottom;endArrow=open;dashed=1;endSize=8;curved=0;rounded=0;" parent="1" edge="1">
          <mxGeometry x="0.0054" relative="1" as="geometry">
            <mxPoint x="550" y="539.6" as="sourcePoint" />
            <mxPoint x="365" y="539.6" as="targetPoint" />
            <Array as="points">
              <mxPoint x="410" y="539.6" />
            </Array>
            <mxPoint as="offset" />
          </mxGeometry>
        </mxCell>
        <mxCell id="7oGzQQwhrVkhOCCTpUsd-50" value="Возвращение&lt;br&gt;результатов" style="html=1;verticalAlign=bottom;endArrow=open;dashed=1;endSize=8;curved=0;rounded=0;" parent="1" edge="1">
          <mxGeometry x="0.0054" relative="1" as="geometry">
            <mxPoint x="550" y="450.00000000000006" as="sourcePoint" />
            <mxPoint x="365" y="450.00000000000006" as="targetPoint" />
            <Array as="points">
              <mxPoint x="410" y="450.00000000000006" />
            </Array>
            <mxPoint as="offset" />
          </mxGeometry>
        </mxCell>
        <mxCell id="7oGzQQwhrVkhOCCTpUsd-51" value="Отображение&amp;nbsp;&lt;div&gt;домашней страницы&lt;/div&gt;" style="html=1;verticalAlign=bottom;endArrow=open;dashed=1;endSize=8;curved=0;rounded=0;" parent="1" edge="1">
          <mxGeometry x="0.0054" relative="1" as="geometry">
            <mxPoint x="350" y="450.50000000000006" as="sourcePoint" />
            <mxPoint x="190" y="450.00000000000006" as="targetPoint" />
            <Array as="points">
              <mxPoint x="235" y="450.00000000000006" />
            </Array>
            <mxPoint as="offset" />
          </mxGeometry>
        </mxCell>
        <mxCell id="7oGzQQwhrVkhOCCTpUsd-57" value="Процесс восстановления пароля" style="rounded=1;whiteSpace=wrap;html=1;fillColor=#d5e8d4;strokeColor=#82b366;" parent="1" vertex="1">
          <mxGeometry x="-120" y="850" width="120" height="60" as="geometry" />
        </mxCell>
        <mxCell id="7oGzQQwhrVkhOCCTpUsd-60" value="Выбор кнопки &lt;div&gt;Забыли пароль&lt;/div&gt;" style="html=1;verticalAlign=bottom;endArrow=block;labelBackgroundColor=none;fontFamily=Verdana;fontSize=12;edgeStyle=elbowEdgeStyle;elbow=vertical;" parent="1" edge="1">
          <mxGeometry relative="1" as="geometry">
            <mxPoint x="190" y="720" as="sourcePoint" />
            <mxPoint x="350" y="720" as="targetPoint" />
            <Array as="points">
              <mxPoint x="289" y="720" />
            </Array>
          </mxGeometry>
        </mxCell>
        <mxCell id="7oGzQQwhrVkhOCCTpUsd-68" value="Процесс создания нового счёта" style="rounded=1;whiteSpace=wrap;html=1;fillColor=#d5e8d4;strokeColor=#82b366;" parent="1" vertex="1">
          <mxGeometry x="-120" y="1400" width="120" height="60" as="geometry" />
        </mxCell>
        <mxCell id="7oGzQQwhrVkhOCCTpUsd-74" value="" style="endArrow=none;html=1;rounded=0;" parent="1" edge="1">
          <mxGeometry width="50" height="50" relative="1" as="geometry">
            <mxPoint x="-120" y="1660" as="sourcePoint" />
            <mxPoint x="840" y="1660" as="targetPoint" />
          </mxGeometry>
        </mxCell>
        <mxCell id="o5U00ARaUKJrAo0CxWUA-4" value="Запрос на отображение &lt;br&gt;страницы входа" style="html=1;verticalAlign=bottom;endArrow=block;curved=0;rounded=0;" parent="1" edge="1">
          <mxGeometry width="80" relative="1" as="geometry">
            <mxPoint x="370" y="640" as="sourcePoint" />
            <mxPoint x="550" y="641" as="targetPoint" />
          </mxGeometry>
        </mxCell>
        <mxCell id="o5U00ARaUKJrAo0CxWUA-7" value="Передача формы&lt;br&gt;для заполнения" style="html=1;verticalAlign=bottom;endArrow=open;dashed=1;endSize=8;curved=0;rounded=0;" parent="1" edge="1">
          <mxGeometry relative="1" as="geometry">
            <mxPoint x="550" y="760" as="sourcePoint" />
            <mxPoint x="370" y="760" as="targetPoint" />
            <Array as="points">
              <mxPoint x="410" y="760" />
            </Array>
          </mxGeometry>
        </mxCell>
        <mxCell id="o5U00ARaUKJrAo0CxWUA-8" value="Запрос на отображение &lt;br&gt;страницы восстановления пароля" style="html=1;verticalAlign=bottom;endArrow=block;curved=0;rounded=0;" parent="1" edge="1">
          <mxGeometry width="80" relative="1" as="geometry">
            <mxPoint x="370" y="720" as="sourcePoint" />
            <mxPoint x="550" y="721" as="targetPoint" />
          </mxGeometry>
        </mxCell>
        <mxCell id="o5U00ARaUKJrAo0CxWUA-20" value="Запрос на поиск совпадений&lt;br&gt;с введенными данными" style="html=1;verticalAlign=bottom;endArrow=block;labelBackgroundColor=none;fontFamily=Verdana;fontSize=12;edgeStyle=elbowEdgeStyle;elbow=vertical;" parent="1" edge="1">
          <mxGeometry relative="1" as="geometry">
            <mxPoint x="570" y="850" as="sourcePoint" />
            <mxPoint x="750" y="850" as="targetPoint" />
            <Array as="points">
              <mxPoint x="650" y="850" />
            </Array>
          </mxGeometry>
        </mxCell>
        <mxCell id="o5U00ARaUKJrAo0CxWUA-28" value="email не найден" style="shape=umlFrame;whiteSpace=wrap;html=1;pointerEvents=0;" parent="1" vertex="1">
          <mxGeometry x="100" y="898" width="680" height="62" as="geometry" />
        </mxCell>
        <mxCell id="o5U00ARaUKJrAo0CxWUA-29" value="Возвращение&lt;br&gt;результатов" style="html=1;verticalAlign=bottom;endArrow=open;dashed=1;endSize=8;curved=0;rounded=0;" parent="1" edge="1">
          <mxGeometry x="0.0054" relative="1" as="geometry">
            <mxPoint x="550" y="950" as="sourcePoint" />
            <mxPoint x="365" y="950" as="targetPoint" />
            <Array as="points">
              <mxPoint x="410" y="950" />
            </Array>
            <mxPoint as="offset" />
          </mxGeometry>
        </mxCell>
        <mxCell id="o5U00ARaUKJrAo0CxWUA-30" value="Возвращение сообщения,&amp;nbsp;&lt;br&gt;что на этот email нет&amp;nbsp;&lt;div&gt;зарегистрированного аккаунта&lt;br&gt;&lt;/div&gt;" style="html=1;verticalAlign=bottom;endArrow=open;dashed=1;endSize=8;curved=0;rounded=0;" parent="1" edge="1">
          <mxGeometry relative="1" as="geometry">
            <mxPoint x="350" y="950" as="sourcePoint" />
            <mxPoint x="190" y="950" as="targetPoint" />
            <Array as="points">
              <mxPoint x="220" y="950" />
            </Array>
            <mxPoint as="offset" />
          </mxGeometry>
        </mxCell>
        <mxCell id="o5U00ARaUKJrAo0CxWUA-31" value="иначе" style="shape=umlFrame;whiteSpace=wrap;html=1;pointerEvents=0;" parent="1" vertex="1">
          <mxGeometry x="100" y="960" width="680" height="250" as="geometry" />
        </mxCell>
        <mxCell id="o5U00ARaUKJrAo0CxWUA-32" value="Передача формы для&lt;div&gt;подтверждения email&lt;/div&gt;" style="html=1;verticalAlign=bottom;endArrow=open;dashed=1;endSize=8;curved=0;rounded=0;" parent="1" edge="1">
          <mxGeometry x="0.0054" relative="1" as="geometry">
            <mxPoint x="550" y="999.55" as="sourcePoint" />
            <mxPoint x="365" y="999.55" as="targetPoint" />
            <Array as="points">
              <mxPoint x="410" y="999.55" />
            </Array>
            <mxPoint as="offset" />
          </mxGeometry>
        </mxCell>
        <mxCell id="o5U00ARaUKJrAo0CxWUA-33" value="Отображение формы для&lt;div&gt;ввода кода из email&lt;/div&gt;" style="html=1;verticalAlign=bottom;endArrow=open;dashed=1;endSize=8;curved=0;rounded=0;" parent="1" edge="1">
          <mxGeometry x="0.0054" relative="1" as="geometry">
            <mxPoint x="350" y="1000" as="sourcePoint" />
            <mxPoint x="190" y="999.55" as="targetPoint" />
            <Array as="points">
              <mxPoint x="235" y="999.55" />
            </Array>
            <mxPoint as="offset" />
          </mxGeometry>
        </mxCell>
        <mxCell id="o5U00ARaUKJrAo0CxWUA-36" value="Ввод кода из email" style="html=1;verticalAlign=bottom;endArrow=block;labelBackgroundColor=none;fontFamily=Verdana;fontSize=12;edgeStyle=elbowEdgeStyle;elbow=vertical;" parent="1" edge="1">
          <mxGeometry relative="1" as="geometry">
            <mxPoint x="190" y="1030" as="sourcePoint" />
            <mxPoint x="350" y="1030" as="targetPoint" />
            <Array as="points">
              <mxPoint x="270" y="1030" />
            </Array>
          </mxGeometry>
        </mxCell>
        <mxCell id="o5U00ARaUKJrAo0CxWUA-37" value="Передача данных формы" style="html=1;verticalAlign=bottom;endArrow=block;labelBackgroundColor=none;fontFamily=Verdana;fontSize=12;edgeStyle=elbowEdgeStyle;elbow=horizontal;" parent="1" edge="1">
          <mxGeometry relative="1" as="geometry">
            <mxPoint x="370" y="1030" as="sourcePoint" />
            <mxPoint x="550.5" y="1030" as="targetPoint" />
            <Array as="points">
              <mxPoint x="441" y="1030" />
            </Array>
          </mxGeometry>
        </mxCell>
        <mxCell id="o5U00ARaUKJrAo0CxWUA-38" value="Проверка&lt;div&gt;корректности&lt;/div&gt;" style="html=1;verticalAlign=bottom;endArrow=block;labelBackgroundColor=none;fontFamily=Verdana;fontSize=12;elbow=vertical;edgeStyle=orthogonalEdgeStyle;curved=1;entryX=1;entryY=0.286;entryPerimeter=0;rounded=0;" parent="1" edge="1">
          <mxGeometry relative="1" as="geometry">
            <mxPoint x="565" y="1030" as="sourcePoint" />
            <mxPoint x="564.6199999999999" y="1067.9" as="targetPoint" />
            <Array as="points">
              <mxPoint x="614.6199999999999" y="1029.9" />
              <mxPoint x="614.6199999999999" y="1067.9" />
            </Array>
          </mxGeometry>
        </mxCell>
        <mxCell id="o5U00ARaUKJrAo0CxWUA-39" value="Передача формы для&lt;div&gt;ввода нового пароля&lt;span style=&quot;background-color: rgb(251, 251, 251); color: rgba(0, 0, 0, 0); font-family: monospace; font-size: 0px; text-align: start;&quot;&gt;%3CmxGraphModel%3E%3Croot%3E%3CmxCell%20id%3D%220%22%2F%3E%3CmxCell%20id%3D%221%22%20parent%3D%220%22%2F%3E%3CmxCell%20id%3D%222%22%20value%3D%22%D0%9F%D0%B5%D1%80%D0%B5%D0%B4%D0%B0%D1%87%D0%B0%20%D1%84%D0%BE%D1%80%D0%BC%D1%8B%20%D0%B4%D0%BB%D1%8F%26lt%3Bdiv%26gt%3B%D0%BF%D0%BE%D0%B4%D1%82%D0%B2%D0%B5%D1%80%D0%B6%D0%B4%D0%B5%D0%BD%D0%B8%D1%8F%20email%26lt%3B%2Fdiv%26gt%3B%22%20style%3D%22html%3D1%3BverticalAlign%3Dbottom%3BendArrow%3Dopen%3Bdashed%3D1%3BendSize%3D8%3Bcurved%3D0%3Brounded%3D0%3B%22%20edge%3D%221%22%20parent%3D%221%22%3E%3CmxGeometry%20x%3D%220.0054%22%20relative%3D%221%22%20as%3D%22geometry%22%3E%3CmxPoint%20x%3D%22550%22%20y%3D%22999.55%22%20as%3D%22sourcePoint%22%2F%3E%3CmxPoint%20x%3D%22365%22%20y%3D%22999.55%22%20as%3D%22targetPoint%22%2F%3E%3CArray%20as%3D%22points%22%3E%3CmxPoint%20x%3D%22410%22%20y%3D%22999.55%22%2F%3E%3C%2FArray%3E%3CmxPoint%20as%3D%22offset%22%2F%3E%3C%2FmxGeometry%3E%3C%2FmxCell%3E%3C%2Froot%3E%3C%2FmxGraphModel%3E&lt;/span&gt;&lt;/div&gt;" style="html=1;verticalAlign=bottom;endArrow=open;dashed=1;endSize=8;curved=0;rounded=0;" parent="1" edge="1">
          <mxGeometry x="0.0054" relative="1" as="geometry">
            <mxPoint x="550" y="1070" as="sourcePoint" />
            <mxPoint x="365" y="1070" as="targetPoint" />
            <Array as="points">
              <mxPoint x="410" y="1070" />
            </Array>
            <mxPoint as="offset" />
          </mxGeometry>
        </mxCell>
        <mxCell id="o5U00ARaUKJrAo0CxWUA-40" value="Отображение формы для&lt;div&gt;нового пароля&lt;/div&gt;" style="html=1;verticalAlign=bottom;endArrow=open;dashed=1;endSize=8;curved=0;rounded=0;" parent="1" edge="1">
          <mxGeometry x="0.0054" relative="1" as="geometry">
            <mxPoint x="350" y="1070" as="sourcePoint" />
            <mxPoint x="190" y="1070" as="targetPoint" />
            <Array as="points">
              <mxPoint x="235" y="1070" />
            </Array>
            <mxPoint as="offset" />
          </mxGeometry>
        </mxCell>
        <mxCell id="o5U00ARaUKJrAo0CxWUA-41" value="Заполнение формы" style="html=1;verticalAlign=bottom;endArrow=block;labelBackgroundColor=none;fontFamily=Verdana;fontSize=12;edgeStyle=elbowEdgeStyle;elbow=vertical;" parent="1" edge="1">
          <mxGeometry relative="1" as="geometry">
            <mxPoint x="190" y="1100" as="sourcePoint" />
            <mxPoint x="350" y="1100" as="targetPoint" />
            <Array as="points">
              <mxPoint x="270" y="1100" />
            </Array>
          </mxGeometry>
        </mxCell>
        <mxCell id="o5U00ARaUKJrAo0CxWUA-43" value="Перенаправление данных" style="html=1;verticalAlign=bottom;endArrow=block;labelBackgroundColor=none;fontFamily=Verdana;fontSize=12;edgeStyle=elbowEdgeStyle;elbow=horizontal;" parent="1" edge="1">
          <mxGeometry relative="1" as="geometry">
            <mxPoint x="370" y="1160" as="sourcePoint" />
            <mxPoint x="550.5" y="1160" as="targetPoint" />
            <Array as="points">
              <mxPoint x="441" y="1160" />
            </Array>
          </mxGeometry>
        </mxCell>
        <mxCell id="o5U00ARaUKJrAo0CxWUA-44" value="Замена в базе&lt;div&gt;старого пароля на новый&lt;/div&gt;" style="html=1;verticalAlign=bottom;endArrow=block;labelBackgroundColor=none;fontFamily=Verdana;fontSize=12;edgeStyle=elbowEdgeStyle;elbow=horizontal;" parent="1" edge="1">
          <mxGeometry relative="1" as="geometry">
            <mxPoint x="570" y="1160" as="sourcePoint" />
            <mxPoint x="750.5" y="1160" as="targetPoint" />
            <Array as="points">
              <mxPoint x="641" y="1160" />
            </Array>
          </mxGeometry>
        </mxCell>
        <mxCell id="o5U00ARaUKJrAo0CxWUA-45" value="Результат сохранения" style="html=1;verticalAlign=bottom;endArrow=open;dashed=1;endSize=8;curved=0;rounded=0;" parent="1" edge="1">
          <mxGeometry x="0.0054" relative="1" as="geometry">
            <mxPoint x="755" y="1190" as="sourcePoint" />
            <mxPoint x="570" y="1190" as="targetPoint" />
            <Array as="points">
              <mxPoint x="615" y="1190" />
            </Array>
            <mxPoint as="offset" />
          </mxGeometry>
        </mxCell>
        <mxCell id="o5U00ARaUKJrAo0CxWUA-46" value="Возвращение результатов&lt;span style=&quot;color: rgba(0, 0, 0, 0); font-family: monospace; font-size: 0px; text-align: start; background-color: rgb(251, 251, 251);&quot;&gt;%3CmxGraphModel%3E%3Croot%3E%3CmxCell%20id%3D%220%22%2F%3E%3CmxCell%20id%3D%221%22%20parent%3D%220%22%2F%3E%3CmxCell%20id%3D%222%22%20value%3D%22%D0%A0%D0%B5%D0%B7%D1%83%D0%BB%D1%8C%D1%82%D0%B0%D1%82%20%D1%81%D0%BE%D1%85%D1%80%D0%B0%D0%BD%D0%B5%D0%BD%D0%B8%D1%8F%22%20style%3D%22html%3D1%3BverticalAlign%3Dbottom%3BendArrow%3Dopen%3Bdashed%3D1%3BendSize%3D8%3Bcurved%3D0%3Brounded%3D0%3B%22%20edge%3D%221%22%20parent%3D%221%22%3E%3CmxGeometry%20x%3D%220.0054%22%20relative%3D%221%22%20as%3D%22geometry%22%3E%3CmxPoint%20x%3D%22755%22%20y%3D%221190%22%20as%3D%22sourcePoint%22%2F%3E%3CmxPoint%20x%3D%22570%22%20y%3D%221190%22%20as%3D%22targetPoint%22%2F%3E%3CArray%20as%3D%22points%22%3E%3CmxPoint%20x%3D%22615%22%20y%3D%221190%22%2F%3E%3C%2FArray%3E%3CmxPoint%20as%3D%22offset%22%2F%3E%3C%2FmxGeometry%3E%3C%2FmxCell%3E%3C%2Froot%3E%3C%2FmxGraphModel%3E&lt;/span&gt;" style="html=1;verticalAlign=bottom;endArrow=open;dashed=1;endSize=8;curved=0;rounded=0;" parent="1" edge="1">
          <mxGeometry x="0.0054" relative="1" as="geometry">
            <mxPoint x="550" y="1190" as="sourcePoint" />
            <mxPoint x="365" y="1190" as="targetPoint" />
            <Array as="points">
              <mxPoint x="410" y="1190" />
            </Array>
            <mxPoint as="offset" />
          </mxGeometry>
        </mxCell>
        <mxCell id="o5U00ARaUKJrAo0CxWUA-47" value="Сообщение об успешном&lt;div&gt;&amp;nbsp;изменении пароля&lt;/div&gt;" style="html=1;verticalAlign=bottom;endArrow=open;dashed=1;endSize=8;curved=0;rounded=0;" parent="1" edge="1">
          <mxGeometry x="0.0054" relative="1" as="geometry">
            <mxPoint x="350" y="1190" as="sourcePoint" />
            <mxPoint x="190" y="1190" as="targetPoint" />
            <Array as="points">
              <mxPoint x="235" y="1190" />
            </Array>
            <mxPoint as="offset" />
          </mxGeometry>
        </mxCell>
        <mxCell id="o5U00ARaUKJrAo0CxWUA-57" value="Нажатие кнопки &lt;br&gt;сохранения" style="html=1;verticalAlign=bottom;endArrow=block;labelBackgroundColor=none;fontFamily=Verdana;fontSize=12;edgeStyle=elbowEdgeStyle;elbow=vertical;" parent="1" edge="1">
          <mxGeometry relative="1" as="geometry">
            <mxPoint x="190" y="1550" as="sourcePoint" />
            <mxPoint x="350" y="1550" as="targetPoint" />
            <Array as="points">
              <mxPoint x="275" y="1550" />
            </Array>
          </mxGeometry>
        </mxCell>
        <mxCell id="o5U00ARaUKJrAo0CxWUA-58" value="Перенаправление данных" style="html=1;verticalAlign=bottom;endArrow=block;labelBackgroundColor=none;fontFamily=Verdana;fontSize=12;edgeStyle=elbowEdgeStyle;elbow=vertical;" parent="1" edge="1">
          <mxGeometry relative="1" as="geometry">
            <mxPoint x="365" y="1550" as="sourcePoint" />
            <mxPoint x="550" y="1550" as="targetPoint" />
            <Array as="points">
              <mxPoint x="445" y="1550" />
            </Array>
          </mxGeometry>
        </mxCell>
        <mxCell id="o5U00ARaUKJrAo0CxWUA-59" value="Возвращение результатов" style="html=1;verticalAlign=bottom;endArrow=open;dashed=1;endSize=8;curved=0;rounded=0;" parent="1" edge="1">
          <mxGeometry x="0.0054" relative="1" as="geometry">
            <mxPoint x="550" y="1600" as="sourcePoint" />
            <mxPoint x="365" y="1600" as="targetPoint" />
            <Array as="points">
              <mxPoint x="410" y="1600" />
            </Array>
            <mxPoint as="offset" />
          </mxGeometry>
        </mxCell>
        <mxCell id="o5U00ARaUKJrAo0CxWUA-60" value="Переход на&amp;nbsp;страницу&lt;div&gt;транзакций и счетов&lt;/div&gt;" style="html=1;verticalAlign=bottom;endArrow=open;dashed=1;endSize=8;curved=0;rounded=0;" parent="1" edge="1">
          <mxGeometry x="0.0054" relative="1" as="geometry">
            <mxPoint x="350" y="1600.5" as="sourcePoint" />
            <mxPoint x="190" y="1600" as="targetPoint" />
            <Array as="points">
              <mxPoint x="235" y="1600" />
            </Array>
            <mxPoint as="offset" />
          </mxGeometry>
        </mxCell>
        <mxCell id="o5U00ARaUKJrAo0CxWUA-61" value="Запрос на отображение страницы &lt;br&gt;создания нового счёта" style="html=1;verticalAlign=bottom;endArrow=block;curved=0;rounded=0;" parent="1" edge="1">
          <mxGeometry width="80" relative="1" as="geometry">
            <mxPoint x="365" y="1350" as="sourcePoint" />
            <mxPoint x="550" y="1351" as="targetPoint" />
          </mxGeometry>
        </mxCell>
        <mxCell id="o5U00ARaUKJrAo0CxWUA-62" value="Передача формы&lt;br&gt;для заполнения" style="html=1;verticalAlign=bottom;endArrow=open;dashed=1;endSize=8;curved=0;rounded=0;" parent="1" edge="1">
          <mxGeometry relative="1" as="geometry">
            <mxPoint x="550" y="1390" as="sourcePoint" />
            <mxPoint x="370" y="1390" as="targetPoint" />
            <Array as="points">
              <mxPoint x="410" y="1390" />
            </Array>
          </mxGeometry>
        </mxCell>
        <mxCell id="o5U00ARaUKJrAo0CxWUA-66" value="Добавление данных в базу" style="html=1;verticalAlign=bottom;endArrow=block;labelBackgroundColor=none;fontFamily=Verdana;fontSize=12;edgeStyle=elbowEdgeStyle;elbow=vertical;" parent="1" edge="1">
          <mxGeometry relative="1" as="geometry">
            <mxPoint x="570" y="1550" as="sourcePoint" />
            <mxPoint x="750" y="1550" as="targetPoint" />
            <Array as="points">
              <mxPoint x="650" y="1550" />
            </Array>
          </mxGeometry>
        </mxCell>
        <mxCell id="o5U00ARaUKJrAo0CxWUA-67" value="Результат сохранения" style="html=1;verticalAlign=bottom;endArrow=open;dashed=1;endSize=8;curved=0;rounded=0;" parent="1" edge="1">
          <mxGeometry x="0.0054" relative="1" as="geometry">
            <mxPoint x="755" y="1600.1" as="sourcePoint" />
            <mxPoint x="570" y="1600.1" as="targetPoint" />
            <Array as="points">
              <mxPoint x="615" y="1600.1" />
            </Array>
            <mxPoint as="offset" />
          </mxGeometry>
        </mxCell>
        <mxCell id="o5U00ARaUKJrAo0CxWUA-68" value="Процесс создания семейного счёта" style="rounded=1;whiteSpace=wrap;html=1;fillColor=#d5e8d4;strokeColor=#82b366;" parent="1" vertex="1">
          <mxGeometry x="-120" y="1840" width="120" height="60" as="geometry" />
        </mxCell>
        <mxCell id="o5U00ARaUKJrAo0CxWUA-72" value="Переход на &lt;br&gt;домашнюю страницу" style="html=1;verticalAlign=bottom;endArrow=block;labelBackgroundColor=none;fontFamily=Verdana;fontSize=12;edgeStyle=elbowEdgeStyle;elbow=vertical;" parent="1" edge="1">
          <mxGeometry relative="1" as="geometry">
            <mxPoint x="190" y="2180" as="sourcePoint" />
            <mxPoint x="355" y="2180" as="targetPoint" />
            <Array as="points">
              <mxPoint x="285" y="2180" />
            </Array>
          </mxGeometry>
        </mxCell>
        <mxCell id="o5U00ARaUKJrAo0CxWUA-74" value="Выбор кнопки&amp;nbsp;&lt;div&gt;&lt;span style=&quot;background-color: initial;&quot;&gt;добавления&lt;/span&gt;&lt;div&gt;&lt;div&gt;семейного счёта&lt;/div&gt;&lt;/div&gt;&lt;/div&gt;" style="html=1;verticalAlign=bottom;endArrow=block;labelBackgroundColor=none;fontFamily=Verdana;fontSize=12;edgeStyle=elbowEdgeStyle;elbow=vertical;" parent="1" edge="1">
          <mxGeometry relative="1" as="geometry">
            <mxPoint x="190" y="1810.33" as="sourcePoint" />
            <mxPoint x="355" y="1810" as="targetPoint" />
            <Array as="points">
              <mxPoint x="285" y="1810" />
            </Array>
          </mxGeometry>
        </mxCell>
        <mxCell id="o5U00ARaUKJrAo0CxWUA-75" value="Отображение формы&lt;br&gt;для создания семейного счёта" style="html=1;verticalAlign=bottom;endArrow=open;dashed=1;endSize=8;curved=0;rounded=0;" parent="1" edge="1">
          <mxGeometry x="0.0054" relative="1" as="geometry">
            <mxPoint x="355" y="1860.5" as="sourcePoint" />
            <mxPoint x="195" y="1860" as="targetPoint" />
            <Array as="points">
              <mxPoint x="240" y="1860" />
            </Array>
            <mxPoint as="offset" />
          </mxGeometry>
        </mxCell>
        <mxCell id="o5U00ARaUKJrAo0CxWUA-76" value="Запрос на отображение страницы &lt;br&gt;создания семейного счёта" style="html=1;verticalAlign=bottom;endArrow=block;curved=0;rounded=0;" parent="1" edge="1">
          <mxGeometry width="80" relative="1" as="geometry">
            <mxPoint x="365" y="1810" as="sourcePoint" />
            <mxPoint x="550" y="1811" as="targetPoint" />
          </mxGeometry>
        </mxCell>
        <mxCell id="o5U00ARaUKJrAo0CxWUA-78" value="Открытие домашней страницы" style="html=1;verticalAlign=bottom;endArrow=open;dashed=1;endSize=8;curved=0;rounded=0;" parent="1" edge="1">
          <mxGeometry relative="1" as="geometry">
            <mxPoint x="550" y="2220" as="sourcePoint" />
            <mxPoint x="370" y="2220" as="targetPoint" />
            <Array as="points">
              <mxPoint x="410" y="2220" />
            </Array>
          </mxGeometry>
        </mxCell>
        <mxCell id="o5U00ARaUKJrAo0CxWUA-79" value="Запрос на отображение &lt;br&gt;домашней страницы" style="html=1;verticalAlign=bottom;endArrow=block;curved=0;rounded=0;" parent="1" edge="1">
          <mxGeometry width="80" relative="1" as="geometry">
            <mxPoint x="365" y="2180" as="sourcePoint" />
            <mxPoint x="550" y="2181" as="targetPoint" />
          </mxGeometry>
        </mxCell>
        <mxCell id="o5U00ARaUKJrAo0CxWUA-81" value="Заполнение&amp;nbsp;&lt;div&gt;&lt;span style=&quot;background-color: initial;&quot;&gt;данных формы&lt;/span&gt;&lt;div&gt;(+ввод email людей&amp;nbsp;&lt;span style=&quot;background-color: initial;&quot;&gt;для&lt;/span&gt;&lt;/div&gt;&lt;div&gt;их подключения к счёту)&lt;/div&gt;&lt;/div&gt;" style="html=1;verticalAlign=bottom;endArrow=block;labelBackgroundColor=none;fontFamily=Verdana;fontSize=12;edgeStyle=elbowEdgeStyle;elbow=vertical;" parent="1" edge="1">
          <mxGeometry relative="1" as="geometry">
            <mxPoint x="190" y="1930" as="sourcePoint" />
            <mxPoint x="355" y="1930" as="targetPoint" />
            <Array as="points">
              <mxPoint x="285" y="1930" />
            </Array>
          </mxGeometry>
        </mxCell>
        <mxCell id="o5U00ARaUKJrAo0CxWUA-85" value="Добавление данных о счёте в базу" style="html=1;verticalAlign=bottom;endArrow=block;curved=0;rounded=0;" parent="1" edge="1">
          <mxGeometry width="80" relative="1" as="geometry">
            <mxPoint x="570" y="2060" as="sourcePoint" />
            <mxPoint x="755" y="2061" as="targetPoint" />
          </mxGeometry>
        </mxCell>
        <mxCell id="o5U00ARaUKJrAo0CxWUA-90" value="" style="endArrow=none;html=1;rounded=0;" parent="1" edge="1">
          <mxGeometry width="50" height="50" relative="1" as="geometry">
            <mxPoint x="-120" y="2140" as="sourcePoint" />
            <mxPoint x="840" y="2140" as="targetPoint" />
          </mxGeometry>
        </mxCell>
        <mxCell id="o5U00ARaUKJrAo0CxWUA-94" value="Процесс создания новой транзакции" style="rounded=1;whiteSpace=wrap;html=1;fillColor=#d5e8d4;strokeColor=#82b366;" parent="1" vertex="1">
          <mxGeometry x="-120" y="2320" width="120" height="60" as="geometry" />
        </mxCell>
        <mxCell id="o5U00ARaUKJrAo0CxWUA-109" value="Запрос на отображение страницы &lt;br&gt;создания новой транзакции" style="html=1;verticalAlign=bottom;endArrow=block;curved=0;rounded=0;" parent="1" edge="1">
          <mxGeometry width="80" relative="1" as="geometry">
            <mxPoint x="365" y="2270" as="sourcePoint" />
            <mxPoint x="550" y="2271" as="targetPoint" />
          </mxGeometry>
        </mxCell>
        <mxCell id="o5U00ARaUKJrAo0CxWUA-106" value="Отображение формы для&lt;br&gt;создания транзакции&lt;br&gt;с выбором категории / созданием&lt;div&gt;новой категории&lt;/div&gt;" style="html=1;verticalAlign=bottom;endArrow=open;dashed=1;endSize=8;curved=0;rounded=0;" parent="1" edge="1">
          <mxGeometry x="0.0631" y="-10" relative="1" as="geometry">
            <mxPoint x="355" y="2360.5" as="sourcePoint" />
            <mxPoint x="195" y="2360" as="targetPoint" />
            <Array as="points">
              <mxPoint x="240" y="2360" />
            </Array>
            <mxPoint as="offset" />
          </mxGeometry>
        </mxCell>
        <mxCell id="o5U00ARaUKJrAo0CxWUA-110" value="Передача формы&lt;br&gt;для заполнения" style="html=1;verticalAlign=bottom;endArrow=open;dashed=1;endSize=8;curved=0;rounded=0;" parent="1" edge="1">
          <mxGeometry relative="1" as="geometry">
            <mxPoint x="550" y="2360" as="sourcePoint" />
            <mxPoint x="370" y="2360" as="targetPoint" />
            <Array as="points">
              <mxPoint x="410" y="2360" />
            </Array>
          </mxGeometry>
        </mxCell>
        <mxCell id="o5U00ARaUKJrAo0CxWUA-120" value="" style="endArrow=none;html=1;rounded=0;" parent="1" edge="1">
          <mxGeometry width="50" height="50" relative="1" as="geometry">
            <mxPoint x="-120" y="2600" as="sourcePoint" />
            <mxPoint x="840" y="2600" as="targetPoint" />
          </mxGeometry>
        </mxCell>
        <mxCell id="o5U00ARaUKJrAo0CxWUA-124" value="Процесс создания новой категории" style="rounded=1;whiteSpace=wrap;html=1;fillColor=#d5e8d4;strokeColor=#82b366;" parent="1" vertex="1">
          <mxGeometry x="-120" y="2800" width="120" height="60" as="geometry" />
        </mxCell>
        <mxCell id="o5U00ARaUKJrAo0CxWUA-134" value="Запрос на отображение страницы &lt;br&gt;создания новой категории" style="html=1;verticalAlign=bottom;endArrow=block;curved=0;rounded=0;" parent="1" edge="1">
          <mxGeometry width="80" relative="1" as="geometry">
            <mxPoint x="365" y="2860" as="sourcePoint" />
            <mxPoint x="550" y="2861" as="targetPoint" />
          </mxGeometry>
        </mxCell>
        <mxCell id="o5U00ARaUKJrAo0CxWUA-135" value="Передача формы&lt;br&gt;для заполнения" style="html=1;verticalAlign=bottom;endArrow=open;dashed=1;endSize=8;curved=0;rounded=0;" parent="1" edge="1">
          <mxGeometry relative="1" as="geometry">
            <mxPoint x="550" y="2900" as="sourcePoint" />
            <mxPoint x="370" y="2900" as="targetPoint" />
            <Array as="points">
              <mxPoint x="410" y="2900" />
            </Array>
          </mxGeometry>
        </mxCell>
        <mxCell id="o5U00ARaUKJrAo0CxWUA-136" value="Отображение формы для&lt;br&gt;создания новой категории" style="html=1;verticalAlign=bottom;endArrow=open;dashed=1;endSize=8;curved=0;rounded=0;" parent="1" edge="1">
          <mxGeometry relative="1" as="geometry">
            <mxPoint x="350" y="2900.5" as="sourcePoint" />
            <mxPoint x="190" y="2900" as="targetPoint" />
            <Array as="points">
              <mxPoint x="235" y="2900" />
            </Array>
            <mxPoint as="offset" />
          </mxGeometry>
        </mxCell>
        <mxCell id="o5U00ARaUKJrAo0CxWUA-140" value="Добавление данных в базу" style="html=1;verticalAlign=bottom;endArrow=block;labelBackgroundColor=none;fontFamily=Verdana;fontSize=12;edgeStyle=elbowEdgeStyle;elbow=vertical;" parent="1" edge="1">
          <mxGeometry relative="1" as="geometry">
            <mxPoint x="570" y="3000" as="sourcePoint" />
            <mxPoint x="750" y="3000" as="targetPoint" />
            <Array as="points">
              <mxPoint x="650" y="3000" />
            </Array>
          </mxGeometry>
        </mxCell>
        <mxCell id="o5U00ARaUKJrAo0CxWUA-149" value="Процесс просмотра&lt;div&gt;графиков расходов на странице&lt;br&gt;&lt;div&gt;анализа расходов&lt;/div&gt;&lt;/div&gt;" style="rounded=1;whiteSpace=wrap;html=1;fillColor=#d5e8d4;strokeColor=#82b366;" parent="1" vertex="1">
          <mxGeometry x="-120" y="3280" width="120" height="60" as="geometry" />
        </mxCell>
        <mxCell id="o5U00ARaUKJrAo0CxWUA-152" value="Отображение &lt;br&gt;страницы анализа" style="html=1;verticalAlign=bottom;endArrow=open;dashed=1;endSize=8;curved=0;rounded=0;" parent="1" edge="1">
          <mxGeometry x="0.0054" relative="1" as="geometry">
            <mxPoint x="355" y="3160.5" as="sourcePoint" />
            <mxPoint x="195" y="3160.33" as="targetPoint" />
            <Array as="points">
              <mxPoint x="240" y="3160" />
            </Array>
            <mxPoint as="offset" />
          </mxGeometry>
        </mxCell>
        <mxCell id="o5U00ARaUKJrAo0CxWUA-153" value="Открытие страницы анализа" style="html=1;verticalAlign=bottom;endArrow=open;dashed=1;endSize=8;curved=0;rounded=0;" parent="1" edge="1">
          <mxGeometry relative="1" as="geometry">
            <mxPoint x="550" y="3160" as="sourcePoint" />
            <mxPoint x="365" y="3160" as="targetPoint" />
            <Array as="points">
              <mxPoint x="405" y="3160" />
            </Array>
          </mxGeometry>
        </mxCell>
        <mxCell id="o5U00ARaUKJrAo0CxWUA-157" value="Запрос на отображение &lt;br&gt;списка видов графика&lt;span style=&quot;color: rgba(0, 0, 0, 0); font-family: monospace; font-size: 0px; text-align: start; background-color: rgb(251, 251, 251);&quot;&gt;%3CmxGraphModel%3E%3Croot%3E%3CmxCell%20id%3D%220%22%2F%3E%3CmxCell%20id%3D%221%22%20parent%3D%220%22%2F%3E%3CmxCell%20id%3D%222%22%20value%3D%22%D0%97%D0%B0%D0%BF%D1%80%D0%BE%D1%81%20%D0%BD%D0%B0%20%D0%BE%D1%82%D0%BE%D0%B1%D1%80%D0%B0%D0%B6%D0%B5%D0%BD%D0%B8%D0%B5%20%26lt%3Bbr%26gt%3B%D1%81%D1%82%D1%80%D0%B0%D0%BD%D0%B8%D1%86%D1%8B%20%D0%B0%D0%BD%D0%B0%D0%BB%D0%B8%D0%B7%D0%B0%20%D1%80%D0%B0%D1%81%D1%85%D0%BE%D0%B4%D0%BE%D0%B2%22%20style%3D%22html%3D1%3BverticalAlign%3Dbottom%3BendArrow%3Dblock%3Bcurved%3D0%3Brounded%3D0%3B%22%20edge%3D%221%22%20parent%3D%221%22%3E%3CmxGeometry%20width%3D%2280%22%20relative%3D%221%22%20as%3D%22geometry%22%3E%3CmxPoint%20x%3D%22370%22%20y%3D%223120%22%20as%3D%22sourcePoint%22%2F%3E%3CmxPoint%20x%3D%22555%22%20y%3D%223121%22%20as%3D%22targetPoint%22%2F%3E%3C%2FmxGeometry%3E%3C%2FmxCell%3E%3C%2Froot%3E%3C%2FmxGraphModel%3E&lt;/span&gt;" style="html=1;verticalAlign=bottom;endArrow=block;curved=0;rounded=0;" parent="1" edge="1">
          <mxGeometry width="80" relative="1" as="geometry">
            <mxPoint x="365" y="3210" as="sourcePoint" />
            <mxPoint x="550" y="3211" as="targetPoint" />
          </mxGeometry>
        </mxCell>
        <mxCell id="o5U00ARaUKJrAo0CxWUA-159" value="Передача списка видов графика&lt;div&gt;для выбора&lt;/div&gt;" style="html=1;verticalAlign=bottom;endArrow=open;dashed=1;endSize=8;curved=0;rounded=0;" parent="1" edge="1">
          <mxGeometry relative="1" as="geometry">
            <mxPoint x="550" y="3260" as="sourcePoint" />
            <mxPoint x="370" y="3260" as="targetPoint" />
            <Array as="points">
              <mxPoint x="410" y="3260" />
            </Array>
          </mxGeometry>
        </mxCell>
        <mxCell id="o5U00ARaUKJrAo0CxWUA-162" value="Запрос на предоставление&lt;div&gt;данных о расходах&lt;/div&gt;&lt;div&gt;по выбранному периоду/счёту&amp;nbsp;&lt;/div&gt;" style="html=1;verticalAlign=bottom;endArrow=block;curved=0;rounded=0;" parent="1" edge="1">
          <mxGeometry width="80" relative="1" as="geometry">
            <mxPoint x="365" y="3340" as="sourcePoint" />
            <mxPoint x="750" y="3340" as="targetPoint" />
          </mxGeometry>
        </mxCell>
        <mxCell id="o5U00ARaUKJrAo0CxWUA-164" value="Предоставление данных" style="html=1;verticalAlign=bottom;endArrow=open;dashed=1;endSize=8;curved=0;rounded=0;" parent="1" edge="1">
          <mxGeometry relative="1" as="geometry">
            <mxPoint x="750" y="3380" as="sourcePoint" />
            <mxPoint x="370" y="3380" as="targetPoint" />
            <Array as="points">
              <mxPoint x="610" y="3380" />
            </Array>
          </mxGeometry>
        </mxCell>
        <mxCell id="o5U00ARaUKJrAo0CxWUA-165" value="Отображение графика" style="html=1;verticalAlign=bottom;endArrow=open;dashed=1;endSize=8;curved=0;rounded=0;" parent="1" edge="1">
          <mxGeometry relative="1" as="geometry">
            <mxPoint x="355" y="3460.5" as="sourcePoint" />
            <mxPoint x="195" y="3460" as="targetPoint" />
            <Array as="points">
              <mxPoint x="240" y="3460" />
            </Array>
            <mxPoint as="offset" />
          </mxGeometry>
        </mxCell>
        <mxCell id="o5U00ARaUKJrAo0CxWUA-168" value="Процесс планирования расходов" style="rounded=1;whiteSpace=wrap;html=1;fillColor=#d5e8d4;strokeColor=#82b366;" parent="1" vertex="1">
          <mxGeometry x="-120" y="3600" width="120" height="60" as="geometry" />
        </mxCell>
        <mxCell id="o5U00ARaUKJrAo0CxWUA-173" value="Запрос на отображение &lt;br&gt;страницы планирования" style="html=1;verticalAlign=bottom;endArrow=block;curved=0;rounded=0;" parent="1" edge="1">
          <mxGeometry width="80" relative="1" as="geometry">
            <mxPoint x="365" y="3520" as="sourcePoint" />
            <mxPoint x="550" y="3521" as="targetPoint" />
          </mxGeometry>
        </mxCell>
        <mxCell id="o5U00ARaUKJrAo0CxWUA-174" value="Отображение &lt;br&gt;страницы планирования" style="html=1;verticalAlign=bottom;endArrow=open;dashed=1;endSize=8;curved=0;rounded=0;" parent="1" edge="1">
          <mxGeometry x="0.0054" relative="1" as="geometry">
            <mxPoint x="355" y="3560.5" as="sourcePoint" />
            <mxPoint x="195" y="3560.33" as="targetPoint" />
            <Array as="points">
              <mxPoint x="240" y="3560" />
            </Array>
            <mxPoint as="offset" />
          </mxGeometry>
        </mxCell>
        <mxCell id="o5U00ARaUKJrAo0CxWUA-175" value="Открытие страницы планирования" style="html=1;verticalAlign=bottom;endArrow=open;dashed=1;endSize=8;curved=0;rounded=0;" parent="1" edge="1">
          <mxGeometry relative="1" as="geometry">
            <mxPoint x="550" y="3560" as="sourcePoint" />
            <mxPoint x="365" y="3560" as="targetPoint" />
            <Array as="points">
              <mxPoint x="405" y="3560" />
            </Array>
          </mxGeometry>
        </mxCell>
        <mxCell id="o5U00ARaUKJrAo0CxWUA-177" value="Запрос на отображение &lt;br&gt;&lt;div style=&quot;text-align: center;&quot;&gt;&lt;span style=&quot;text-align: start; background-color: rgb(255, 255, 255);&quot;&gt;страницы создания нового плана&lt;/span&gt;&lt;span style=&quot;background-color: rgb(251, 251, 251); color: rgba(0, 0, 0, 0); font-family: monospace; font-size: 0px; text-align: start;&quot;&gt;%3CmxGraphModel%3E%3Croot%3E%3CmxCell%20id%3D%220%22%2F%3E%3CmxCell%20id%3D%221%22%20parent%3D%220%22%2F%3E%3CmxCell%20id%3D%222%22%20value%3D%22%D0%97%D0%B0%D0%BF%D1%80%D0%BE%D1%81%20%D0%BD%D0%B0%20%D0%BE%D1%82%D0%BE%D0%B1%D1%80%D0%B0%D0%B6%D0%B5%D0%BD%D0%B8%D0%B5%20%26lt%3Bbr%26gt%3B%D1%81%D1%82%D1%80%D0%B0%D0%BD%D0%B8%D1%86%D1%8B%20%D0%B0%D0%BD%D0%B0%D0%BB%D0%B8%D0%B7%D0%B0%20%D1%80%D0%B0%D1%81%D1%85%D0%BE%D0%B4%D0%BE%D0%B2%22%20style%3D%22html%3D1%3BverticalAlign%3Dbottom%3BendArrow%3Dblock%3Bcurved%3D0%3Brounded%3D0%3B%22%20edge%3D%221%22%20parent%3D%221%22%3E%3CmxGeometry%20width%3D%2280%22%20relative%3D%221%22%20as%3D%22geometry%22%3E%3CmxPoint%20x%3D%22370%22%20y%3D%223120%22%20as%3D%22sourcePoint%22%2F%3E%3CmxPoint%20x%3D%22555%22%20y%3D%223121%22%20as%3D%22targetPoint%22%2F%3E%3C%2FmxGeometry%3E%3C%2FmxCell%3E%3C%2Froot%3E%3C%2FmxGraphModel%3E&lt;/span&gt;&lt;/div&gt;" style="html=1;verticalAlign=bottom;endArrow=block;curved=0;rounded=0;" parent="1" edge="1">
          <mxGeometry width="80" relative="1" as="geometry">
            <mxPoint x="365" y="3600" as="sourcePoint" />
            <mxPoint x="550" y="3601" as="targetPoint" />
          </mxGeometry>
        </mxCell>
        <mxCell id="o5U00ARaUKJrAo0CxWUA-178" value="Передача формы для создания&lt;div&gt;нового плана&lt;/div&gt;" style="html=1;verticalAlign=bottom;endArrow=open;dashed=1;endSize=8;curved=0;rounded=0;" parent="1" edge="1">
          <mxGeometry relative="1" as="geometry">
            <mxPoint x="550" y="3640" as="sourcePoint" />
            <mxPoint x="370" y="3640" as="targetPoint" />
            <Array as="points">
              <mxPoint x="410" y="3640" />
            </Array>
          </mxGeometry>
        </mxCell>
        <mxCell id="o5U00ARaUKJrAo0CxWUA-182" value="Выбор кнопки&amp;nbsp;&lt;div&gt;сохранения&lt;/div&gt;" style="html=1;verticalAlign=bottom;endArrow=block;labelBackgroundColor=none;fontFamily=Verdana;fontSize=12;edgeStyle=elbowEdgeStyle;elbow=vertical;" parent="1" edge="1">
          <mxGeometry relative="1" as="geometry">
            <mxPoint x="190" y="3825.5" as="sourcePoint" />
            <mxPoint x="355" y="3825" as="targetPoint" />
            <Array as="points">
              <mxPoint x="285" y="3825" />
            </Array>
          </mxGeometry>
        </mxCell>
        <mxCell id="o5U00ARaUKJrAo0CxWUA-183" value="Перенаправление данных" style="html=1;verticalAlign=bottom;endArrow=block;labelBackgroundColor=none;fontFamily=Verdana;fontSize=12;edgeStyle=elbowEdgeStyle;elbow=vertical;" parent="1" edge="1">
          <mxGeometry relative="1" as="geometry">
            <mxPoint x="365" y="3825" as="sourcePoint" />
            <mxPoint x="550" y="3825" as="targetPoint" />
            <Array as="points">
              <mxPoint x="445" y="3825" />
            </Array>
          </mxGeometry>
        </mxCell>
        <mxCell id="o5U00ARaUKJrAo0CxWUA-184" value="Добавление данных&lt;div&gt;в базу&lt;/div&gt;" style="html=1;verticalAlign=bottom;endArrow=block;labelBackgroundColor=none;fontFamily=Verdana;fontSize=12;edgeStyle=elbowEdgeStyle;elbow=vertical;" parent="1" edge="1">
          <mxGeometry relative="1" as="geometry">
            <mxPoint x="570" y="3825" as="sourcePoint" />
            <mxPoint x="755" y="3825" as="targetPoint" />
            <Array as="points">
              <mxPoint x="650" y="3825" />
            </Array>
          </mxGeometry>
        </mxCell>
        <mxCell id="o5U00ARaUKJrAo0CxWUA-186" value="Результат сохранения" style="html=1;verticalAlign=bottom;endArrow=open;dashed=1;endSize=8;curved=0;rounded=0;" parent="1" edge="1">
          <mxGeometry relative="1" as="geometry">
            <mxPoint x="750" y="3860" as="sourcePoint" />
            <mxPoint x="570" y="3860" as="targetPoint" />
            <Array as="points">
              <mxPoint x="610" y="3860" />
            </Array>
          </mxGeometry>
        </mxCell>
        <mxCell id="o5U00ARaUKJrAo0CxWUA-187" value="Возвращение результатов" style="html=1;verticalAlign=bottom;endArrow=open;dashed=1;endSize=8;curved=0;rounded=0;" parent="1" edge="1">
          <mxGeometry x="0.0054" relative="1" as="geometry">
            <mxPoint x="550" y="3860" as="sourcePoint" />
            <mxPoint x="365" y="3860" as="targetPoint" />
            <Array as="points">
              <mxPoint x="410" y="3860" />
            </Array>
            <mxPoint as="offset" />
          </mxGeometry>
        </mxCell>
        <mxCell id="ggmF6aR8UfMVz6tL0OW5-1" value="Переход на &lt;br&gt;домашнюю страницу" style="html=1;verticalAlign=bottom;endArrow=block;labelBackgroundColor=none;fontFamily=Verdana;fontSize=12;edgeStyle=elbowEdgeStyle;elbow=vertical;" edge="1" parent="1">
          <mxGeometry relative="1" as="geometry">
            <mxPoint x="190" y="2640" as="sourcePoint" />
            <mxPoint x="350" y="2640" as="targetPoint" />
            <Array as="points">
              <mxPoint x="289" y="2640" />
            </Array>
          </mxGeometry>
        </mxCell>
        <mxCell id="ggmF6aR8UfMVz6tL0OW5-4" value="Открытие домашней страницы" style="html=1;verticalAlign=bottom;endArrow=open;dashed=1;endSize=8;curved=0;rounded=0;" edge="1" parent="1">
          <mxGeometry relative="1" as="geometry">
            <mxPoint x="550" y="2680" as="sourcePoint" />
            <mxPoint x="370" y="2680" as="targetPoint" />
            <Array as="points">
              <mxPoint x="410" y="2680" />
            </Array>
          </mxGeometry>
        </mxCell>
        <mxCell id="ggmF6aR8UfMVz6tL0OW5-5" value="Запрос на отображение &lt;br&gt;домашней страницы" style="html=1;verticalAlign=bottom;endArrow=block;curved=0;rounded=0;" edge="1" parent="1">
          <mxGeometry width="80" relative="1" as="geometry">
            <mxPoint x="365" y="2640" as="sourcePoint" />
            <mxPoint x="550" y="2641" as="targetPoint" />
          </mxGeometry>
        </mxCell>
        <mxCell id="o5U00ARaUKJrAo0CxWUA-63" value="Открытие страницы&lt;div&gt;транзакций и счетов&lt;/div&gt;" style="html=1;verticalAlign=bottom;endArrow=open;dashed=1;endSize=8;curved=0;rounded=0;" parent="1" edge="1">
          <mxGeometry relative="1" as="geometry">
            <mxPoint x="550" y="1310" as="sourcePoint" />
            <mxPoint x="370" y="1310" as="targetPoint" />
            <Array as="points">
              <mxPoint x="410" y="1310" />
            </Array>
          </mxGeometry>
        </mxCell>
        <mxCell id="ggmF6aR8UfMVz6tL0OW5-10" value="Заполнение полей формы" style="html=1;verticalAlign=bottom;endArrow=block;labelBackgroundColor=none;fontFamily=Verdana;fontSize=12;edgeStyle=elbowEdgeStyle;elbow=vertical;" edge="1" parent="1">
          <mxGeometry relative="1" as="geometry">
            <mxPoint x="190" y="1440" as="sourcePoint" />
            <mxPoint x="350" y="1440" as="targetPoint" />
            <Array as="points">
              <mxPoint x="275" y="1440" />
            </Array>
          </mxGeometry>
        </mxCell>
        <mxCell id="ggmF6aR8UfMVz6tL0OW5-12" value="Возвращение результатов" style="html=1;verticalAlign=bottom;endArrow=open;dashed=1;endSize=8;curved=0;rounded=0;" edge="1" parent="1">
          <mxGeometry x="0.0054" relative="1" as="geometry">
            <mxPoint x="350" y="1480" as="sourcePoint" />
            <mxPoint x="190" y="1480" as="targetPoint" />
            <Array as="points">
              <mxPoint x="235" y="1480" />
            </Array>
            <mxPoint as="offset" />
          </mxGeometry>
        </mxCell>
        <mxCell id="ggmF6aR8UfMVz6tL0OW5-16" value="Открытие страницы&lt;div&gt;транзакций и счетов&lt;/div&gt;" style="html=1;verticalAlign=bottom;endArrow=open;dashed=1;endSize=8;curved=0;rounded=0;" edge="1" parent="1">
          <mxGeometry relative="1" as="geometry">
            <mxPoint x="550" y="1750" as="sourcePoint" />
            <mxPoint x="370" y="1750" as="targetPoint" />
            <Array as="points">
              <mxPoint x="410" y="1750" />
            </Array>
          </mxGeometry>
        </mxCell>
        <mxCell id="o5U00ARaUKJrAo0CxWUA-113" value="Перенаправление данных" style="html=1;verticalAlign=bottom;endArrow=block;labelBackgroundColor=none;fontFamily=Verdana;fontSize=12;edgeStyle=elbowEdgeStyle;elbow=vertical;" parent="1" edge="1">
          <mxGeometry relative="1" as="geometry">
            <mxPoint x="370" y="2500" as="sourcePoint" />
            <mxPoint x="555" y="2500" as="targetPoint" />
            <Array as="points">
              <mxPoint x="450" y="2500" />
            </Array>
          </mxGeometry>
        </mxCell>
        <mxCell id="o5U00ARaUKJrAo0CxWUA-119" value="Проверка&lt;div&gt;корректности&lt;/div&gt;&lt;div&gt;данных&lt;/div&gt;" style="html=1;verticalAlign=bottom;endArrow=block;labelBackgroundColor=none;fontFamily=Verdana;fontSize=12;elbow=vertical;edgeStyle=orthogonalEdgeStyle;curved=1;entryX=1;entryY=0.286;entryPerimeter=0;rounded=0;" parent="1" edge="1">
          <mxGeometry relative="1" as="geometry">
            <mxPoint x="370" y="2420" as="sourcePoint" />
            <mxPoint x="364.9999999999999" y="2458" as="targetPoint" />
            <Array as="points">
              <mxPoint x="414.9999999999999" y="2420" />
              <mxPoint x="414.9999999999999" y="2458" />
            </Array>
          </mxGeometry>
        </mxCell>
        <mxCell id="ggmF6aR8UfMVz6tL0OW5-17" value="Заполнение формы" style="html=1;verticalAlign=bottom;endArrow=block;labelBackgroundColor=none;fontFamily=Verdana;fontSize=12;edgeStyle=elbowEdgeStyle;elbow=vertical;" edge="1" parent="1">
          <mxGeometry relative="1" as="geometry">
            <mxPoint x="190" y="2420" as="sourcePoint" />
            <mxPoint x="350" y="2420" as="targetPoint" />
            <Array as="points">
              <mxPoint x="289" y="2420" />
            </Array>
            <mxPoint as="offset" />
          </mxGeometry>
        </mxCell>
        <mxCell id="o5U00ARaUKJrAo0CxWUA-112" value="Нажатие кнопки &lt;br&gt;сохранения" style="html=1;verticalAlign=bottom;endArrow=block;labelBackgroundColor=none;fontFamily=Verdana;fontSize=12;edgeStyle=elbowEdgeStyle;elbow=vertical;" parent="1" edge="1">
          <mxGeometry relative="1" as="geometry">
            <mxPoint x="190" y="2500" as="sourcePoint" />
            <mxPoint x="350" y="2500" as="targetPoint" />
            <Array as="points">
              <mxPoint x="289" y="2500" />
            </Array>
            <mxPoint as="offset" />
          </mxGeometry>
        </mxCell>
        <mxCell id="ggmF6aR8UfMVz6tL0OW5-18" value="Возвращение результатов" style="html=1;verticalAlign=bottom;endArrow=open;dashed=1;endSize=8;curved=0;rounded=0;" edge="1" parent="1">
          <mxGeometry x="0.0054" relative="1" as="geometry">
            <mxPoint x="350" y="2460" as="sourcePoint" />
            <mxPoint x="190" y="2460" as="targetPoint" />
            <Array as="points">
              <mxPoint x="235" y="2460" />
            </Array>
            <mxPoint as="offset" />
          </mxGeometry>
        </mxCell>
        <mxCell id="o5U00ARaUKJrAo0CxWUA-114" value="Добавление данных в базу" style="html=1;verticalAlign=bottom;endArrow=block;labelBackgroundColor=none;fontFamily=Verdana;fontSize=12;edgeStyle=elbowEdgeStyle;elbow=vertical;" parent="1" edge="1">
          <mxGeometry relative="1" as="geometry">
            <mxPoint x="570" y="2500" as="sourcePoint" />
            <mxPoint x="750" y="2500" as="targetPoint" />
            <Array as="points">
              <mxPoint x="650" y="2500" />
            </Array>
          </mxGeometry>
        </mxCell>
      </root>
    </mxGraphModel>
  </diagram>
</mxfile>
